{"glyphs":{"0":{"ha":1058,"x_min":92,"x_max":966,"o":"m 122 256 q 107 304 122 256 q 92 485 92 353 q 122 714 92 617 q 210 870 152 811 q 347 958 268 930 q 529 987 427 987 q 966 485 966 987 q 529 -17 966 -17 q 347 12 427 -17 q 210 99 268 40 q 122 256 152 159 m 302 485 q 359 126 302 237 q 529 16 416 16 q 699 126 642 16 q 755 485 755 237 q 699 844 755 734 q 529 954 642 954 q 432 928 473 954 q 362 848 391 903 q 317 702 332 793 q 302 485 302 611 z "},"1":{"ha":513,"x_min":60,"x_max":402,"o":"m 60 812 l 362 970 l 402 970 l 402 -1 l 208 -1 l 208 844 l 79 776 l 60 812 z "},"2":{"ha":993,"x_min":79,"x_max":906,"o":"m 79 1 l 79 82 q 113 238 79 170 q 201 351 146 307 q 267 394 229 373 q 341 429 306 414 q 444 472 376 444 q 565 523 512 500 q 628 565 601 539 q 667 616 654 591 q 686 666 679 642 q 694 704 693 690 l 694 719 q 677 825 694 780 q 635 894 661 869 q 571 933 610 919 q 498 951 532 947 q 420 956 465 956 q 395 956 410 956 q 335 950 379 956 q 253 933 291 945 q 172 896 214 922 q 104 833 129 870 l 79 855 q 145 920 102 892 q 234 960 189 947 q 323 980 280 972 q 393 987 366 987 l 420 988 q 596 973 513 988 q 750 925 680 958 q 863 836 821 893 q 905 703 905 779 q 906 694 905 700 q 905 672 906 689 q 902 636 905 654 q 892 592 899 618 q 873 539 884 565 q 646 351 825 430 q 559 318 621 340 q 457 279 498 296 q 369 231 416 262 q 298 164 322 200 q 271 33 266 117 l 584 33 l 661 188 l 854 188 l 854 1 l 79 1 z "},"3":{"ha":994,"x_min":75,"x_max":904,"o":"m 75 45 l 85 75 q 236 31 153 46 q 368 16 319 16 l 416 16 q 495 20 460 16 q 568 38 529 24 q 633 77 608 52 q 676 146 659 102 q 694 252 694 191 q 676 344 694 303 q 630 410 658 385 q 564 451 602 435 q 491 474 527 468 q 419 481 455 481 l 216 481 l 216 513 l 418 513 q 488 519 454 513 q 555 540 522 525 q 614 579 589 555 q 654 640 639 602 q 670 726 670 677 q 654 811 670 774 q 614 872 639 849 q 555 911 589 896 q 487 932 521 926 q 418 938 454 938 l 347 938 l 269 782 l 75 782 l 75 970 l 499 970 q 618 962 563 970 q 723 935 674 954 q 806 887 771 916 q 860 818 840 859 q 880 726 880 777 q 821 580 880 636 q 661 499 762 524 q 838 414 772 475 q 904 252 904 352 q 416 -17 904 -17 q 397 -18 409 -18 q 347 -15 385 -18 q 270 -7 309 -13 q 178 12 232 -2 q 75 45 124 25 z "},"4":{"ha":991,"x_min":57,"x_max":939,"o":"m 57 195 l 57 227 l 567 988 l 761 956 l 761 227 l 939 227 l 939 195 l 761 195 l 761 1 l 567 1 l 567 195 l 57 195 m 98 227 l 567 227 l 567 923 l 98 227 z "},"5":{"ha":1005,"x_min":93,"x_max":919,"o":"m 93 45 l 103 75 q 252 32 171 47 q 378 16 332 17 l 425 16 q 531 30 483 16 q 621 76 580 45 q 685 164 662 107 q 709 297 709 220 q 685 430 709 374 q 621 518 662 487 q 531 564 580 549 q 425 578 483 578 q 405 578 418 578 q 353 574 392 578 q 276 564 314 570 q 186 545 237 558 q 93 513 136 532 l 93 970 l 869 970 l 869 783 l 675 783 l 597 938 l 279 938 l 279 598 q 425 611 366 611 q 619 593 532 611 q 775 538 707 575 q 881 440 843 502 q 919 297 919 378 q 880 154 919 216 q 772 56 841 92 q 616 1 703 19 q 425 -17 529 -17 q 407 -17 421 -16 q 358 -15 393 -18 q 285 -7 323 -12 q 194 12 247 -2 q 93 45 142 26 z "},"6":{"ha":1005,"x_min":85,"x_max":930,"o":"m 85 388 q 114 576 85 490 q 191 723 144 663 q 302 830 239 783 q 428 907 365 878 q 556 954 492 935 q 669 980 621 973 q 752 987 717 987 l 752 954 q 648 933 706 954 q 529 872 590 912 q 413 764 468 832 q 329 612 359 696 q 521 646 416 646 q 634 635 578 646 q 744 597 690 623 q 839 534 798 572 q 905 440 880 496 q 930 315 930 383 q 905 190 930 246 q 839 95 880 133 q 744 32 798 58 q 634 -5 690 6 q 521 -17 578 -17 q 446 -14 481 -17 q 365 0 410 -11 q 281 27 319 10 q 206 76 243 45 q 143 148 169 107 q 101 251 117 189 q 85 388 85 313 m 295 388 q 306 239 295 303 q 335 133 316 175 q 382 64 353 91 q 444 27 410 38 q 521 16 478 16 q 580 25 552 16 q 634 56 608 34 q 679 112 660 78 q 708 197 697 145 q 720 315 720 249 q 666 550 720 475 q 521 625 612 625 q 320 585 418 625 q 304 506 313 560 q 295 388 295 451 z "},"7":{"ha":892,"x_min":57,"x_max":844,"o":"m 57 785 l 57 972 l 844 972 l 436 1 l 227 1 l 623 939 l 328 939 l 251 785 l 57 785 z "},"8":{"ha":1044,"x_min":90,"x_max":956,"o":"m 90 242 q 274 473 90 414 q 162 561 202 508 q 123 694 123 614 q 136 785 123 743 q 170 856 149 827 q 219 907 191 884 q 278 943 247 930 q 340 966 309 957 q 399 980 371 976 q 448 985 427 983 q 482 987 469 987 l 495 987 q 659 972 585 987 q 789 929 732 958 q 877 850 846 899 q 908 736 908 801 q 737 516 908 575 q 823 476 786 497 q 891 427 859 456 q 940 359 923 398 q 956 272 956 320 q 942 182 956 223 q 903 112 928 140 q 847 61 879 84 q 781 26 816 39 q 711 3 746 13 q 645 -10 676 -6 q 589 -16 613 -14 q 550 -18 564 -18 l 536 -17 q 367 -2 445 -17 q 226 43 289 13 q 126 124 163 73 q 90 242 90 175 m 275 242 q 503 15 275 15 q 518 15 509 15 q 553 19 527 16 q 604 30 580 23 q 658 50 628 36 q 709 82 688 64 q 746 131 731 101 q 762 199 762 161 q 751 260 763 233 q 714 307 739 287 q 660 341 689 326 q 589 370 631 357 q 512 393 548 383 q 429 417 476 404 q 347 442 381 430 q 275 242 275 383 m 310 771 q 317 733 311 751 q 331 701 323 715 q 355 672 339 686 q 385 648 371 659 q 422 627 399 638 q 462 608 445 615 q 508 591 479 601 q 555 575 537 581 q 605 560 572 570 q 654 545 637 550 q 724 736 724 602 q 673 906 724 857 q 519 954 622 954 q 507 954 515 954 q 477 950 500 954 q 435 941 455 947 q 390 922 414 935 q 348 889 366 908 q 320 840 331 871 q 310 771 309 809 z "},"9":{"ha":1005,"x_min":75,"x_max":920,"o":"m 100 529 q 88 558 100 529 q 75 654 75 586 q 100 780 75 723 q 166 874 125 836 q 261 938 208 911 q 371 975 315 964 q 484 987 427 987 q 559 984 524 987 q 641 970 595 981 q 724 942 686 960 q 799 894 762 925 q 862 822 836 863 q 904 719 888 781 q 920 582 920 657 q 891 393 920 480 q 814 247 861 307 q 703 139 766 187 q 577 63 640 92 q 449 16 513 35 q 336 -10 384 -3 q 253 -17 288 -17 l 253 16 q 357 37 299 16 q 476 98 415 58 q 592 206 537 138 q 676 358 646 274 q 484 323 587 323 q 371 334 427 323 q 261 372 315 346 q 166 435 208 397 q 100 529 125 473 m 286 654 q 339 419 286 494 q 484 345 393 345 q 685 385 587 345 q 701 464 692 408 q 710 582 710 519 q 700 731 710 667 q 670 837 689 795 q 623 905 652 879 q 561 943 595 932 q 484 954 527 954 q 411 939 445 954 q 348 890 377 923 q 302 796 319 857 q 286 654 286 736 z "},"\u0000":{"ha":0,"x_min":0,"x_max":0,"o":""},"\n":{"ha":0,"x_min":0,"x_max":0,"o":""},"\r":{"ha":0,"x_min":0,"x_max":0,"o":""}," ":{"ha":528,"x_min":0,"x_max":0,"o":""},"!":{"ha":414,"x_min":102,"x_max":312,"o":"m 102 746 l 102 972 l 312 972 l 312 746 l 288 325 l 125 325 l 102 746 m 109 0 l 109 227 l 304 227 l 304 0 l 109 0 z "},"\"":{"ha":619,"x_min":68,"x_max":551,"o":"m 68 775 l 68 970 l 262 970 l 262 775 l 238 581 l 92 581 l 68 775 m 357 775 l 357 970 l 551 970 l 551 775 l 527 581 l 381 581 l 357 775 z "},"#":{"ha":875,"x_min":72,"x_max":802,"o":"m 72 340 l 72 372 l 227 373 l 227 600 l 72 600 l 72 633 l 227 633 l 227 972 l 340 972 l 340 633 l 534 633 l 534 972 l 648 972 l 648 633 l 802 632 l 802 600 l 648 600 l 648 373 l 802 372 l 802 340 l 648 340 l 647 0 l 534 0 l 534 340 l 340 340 l 340 0 l 227 0 l 227 340 l 72 340 m 340 373 l 534 373 l 534 600 l 340 600 l 340 373 z "},"$":{"ha":1079,"x_min":89,"x_max":992,"o":"m 89 688 q 104 784 89 741 q 144 857 120 827 q 206 907 169 886 q 279 941 243 929 q 362 960 316 953 q 444 970 408 968 q 522 972 480 972 l 522 1094 l 563 1094 l 563 972 l 951 964 l 951 777 l 743 781 l 669 938 q 563 941 625 940 l 563 570 q 753 514 718 526 q 961 383 909 460 q 992 277 992 336 q 977 184 992 226 q 938 112 962 142 q 877 60 913 83 q 805 24 842 38 q 723 2 768 11 q 642 -10 679 -7 q 563 -15 604 -14 l 563 -136 l 522 -136 l 522 -16 l 110 -7 l 110 180 l 318 176 l 393 19 q 522 16 448 16 l 522 392 q 471 405 505 396 q 409 420 430 415 q 349 437 388 426 q 290 457 311 449 q 237 480 269 466 q 187 508 205 494 q 148 541 169 522 q 115 582 126 561 q 97 630 104 603 q 89 688 89 657 m 292 762 q 309 699 292 727 q 360 649 326 670 q 431 612 394 627 q 522 581 469 597 l 522 940 q 471 936 496 939 q 411 920 445 932 q 352 890 377 909 q 309 839 327 872 q 292 762 292 806 m 563 19 q 616 29 590 22 q 674 50 643 35 q 728 83 705 64 q 766 135 751 103 q 781 206 781 167 q 765 270 781 241 q 716 318 749 298 q 649 353 684 338 q 563 381 614 367 l 563 19 z "},"%":{"ha":1164,"x_min":75,"x_max":1088,"o":"m 75 728 q 294 981 75 981 q 513 728 513 981 q 294 477 513 477 q 75 728 75 477 m 209 909 q 195 881 209 909 q 180 728 180 853 q 209 548 180 604 q 294 493 237 493 q 380 548 351 493 q 408 728 408 604 q 380 909 408 853 q 294 964 351 964 q 209 909 237 964 m 217 1 l 913 980 l 946 957 l 250 -23 l 217 1 m 869 -23 q 650 229 650 -23 q 869 480 650 480 q 1088 229 1088 480 q 869 -23 1088 -23 m 784 409 q 770 381 784 409 q 755 229 755 353 q 784 48 755 104 q 869 -7 812 -7 q 954 48 926 -7 q 983 229 983 104 q 954 409 983 353 q 869 464 926 464 q 784 409 812 464 z "},"&":{"ha":1179,"x_min":89,"x_max":1117,"o":"m 89 260 q 155 419 89 358 q 332 505 221 481 q 177 584 233 528 q 121 730 121 640 q 633 989 121 989 q 793 977 700 988 l 788 949 q 709 956 748 954 q 652 958 671 958 l 633 958 q 524 945 576 958 q 428 906 472 932 q 358 834 384 880 q 332 730 332 789 q 346 645 332 682 q 385 584 361 607 q 440 546 408 561 q 506 525 473 530 q 574 519 538 519 l 793 519 l 793 713 l 987 713 l 987 519 l 1117 519 l 1117 487 l 987 487 l 987 58 q 797 7 898 25 q 639 -14 695 -12 l 583 -16 q 428 -7 498 -16 q 293 21 357 1 q 185 72 229 41 q 115 151 141 102 q 89 260 89 199 m 299 260 q 315 169 299 210 q 357 100 330 128 q 420 54 383 73 q 497 26 456 35 q 583 17 538 17 q 793 35 673 14 l 793 487 l 574 487 q 502 480 538 487 q 429 457 466 474 q 363 416 391 441 q 317 351 335 391 q 299 260 299 311 z "},"'":{"ha":330,"x_min":68,"x_max":262,"o":"m 68 775 l 68 970 l 262 970 l 262 775 l 238 581 l 92 581 l 68 775 z "},"(":{"ha":372,"x_min":97,"x_max":364,"o":"m 115 248 q 106 298 115 248 q 97 478 97 349 q 115 708 97 608 q 170 881 134 809 q 248 1002 205 953 q 348 1093 290 1050 l 364 1069 q 251 879 291 1016 q 210 478 210 742 q 251 77 210 214 q 364 -113 291 -60 l 348 -137 q 248 -45 290 -94 q 170 75 205 3 q 115 248 134 147 z "},")":{"ha":372,"x_min":7,"x_max":274,"o":"m 7 -113 q 120 77 80 -60 q 161 478 161 214 q 120 879 161 742 q 7 1069 80 1017 l 23 1093 q 123 1002 81 1050 q 201 881 165 953 q 256 708 237 809 q 274 478 274 608 q 256 248 274 349 q 201 75 237 147 q 123 -45 165 3 q 23 -137 81 -94 l 7 -113 z "},"*":{"ha":782,"x_min":61,"x_max":720,"o":"m 61 623 l 61 720 l 237 720 l 339 701 l 271 780 l 184 932 l 268 981 l 355 829 l 391 728 l 426 829 l 513 981 l 597 932 l 510 780 l 442 701 l 545 720 l 720 720 l 720 623 l 545 623 l 442 641 l 510 562 l 597 410 l 513 361 l 426 513 l 391 611 l 355 513 l 268 361 l 184 410 l 271 562 l 340 642 l 237 623 l 61 623 z "},"+":{"ha":954,"x_min":56,"x_max":897,"o":"m 56 430 l 56 527 l 428 527 l 428 899 l 525 899 l 525 527 l 897 527 l 897 430 l 525 430 l 525 58 l 428 58 l 428 430 l 56 430 z "},",":{"ha":300,"x_min":53,"x_max":247,"o":"m 53 16 l 53 225 l 247 225 l 247 15 q 204 -115 247 -60 q 90 -195 161 -170 l 82 -164 q 210 -18 189 -128 l 53 16 z "},"-":{"ha":912,"x_min":35,"x_max":876,"o":"m 35 430 l 35 527 l 876 527 l 876 430 l 35 430 z "},".":{"ha":300,"x_min":53,"x_max":247,"o":"m 53 0 l 53 227 l 247 227 l 247 0 l 53 0 z "},"/":{"ha":493,"x_min":60,"x_max":431,"o":"m 60 -7 l 334 964 l 431 964 l 157 -7 l 60 -7 z "},":":{"ha":344,"x_min":75,"x_max":269,"o":"m 75 0 l 75 227 l 269 227 l 269 0 l 75 0 m 75 746 l 75 972 l 269 972 l 269 746 l 75 746 z "},";":{"ha":347,"x_min":77,"x_max":271,"o":"m 77 16 l 77 226 l 271 226 l 271 15 q 228 -115 271 -60 q 114 -195 184 -170 l 106 -164 q 233 -18 212 -128 l 77 16 m 77 745 l 77 971 l 271 971 l 271 745 l 77 745 z "},"<":{"ha":886,"x_min":53,"x_max":817,"o":"m 53 455 l 53 500 l 817 835 l 817 729 l 207 477 l 817 227 l 817 121 l 53 455 z "},"=":{"ha":940,"x_min":49,"x_max":890,"o":"m 49 252 l 49 349 l 890 349 l 890 252 l 49 252 m 49 608 l 49 705 l 890 705 l 890 608 l 49 608 z "},">":{"ha":886,"x_min":69,"x_max":833,"o":"m 69 121 l 69 227 l 680 477 l 69 729 l 69 835 l 833 500 l 833 455 l 69 121 z "},"?":{"ha":886,"x_min":47,"x_max":817,"o":"m 47 856 q 113 921 70 893 q 202 961 157 948 q 291 980 248 973 q 361 988 334 987 l 388 989 q 555 975 479 989 q 691 932 631 961 q 783 856 750 904 q 817 745 817 808 q 796 642 817 688 q 743 567 775 596 q 670 515 710 538 q 591 472 631 491 q 518 433 551 453 q 465 387 486 414 q 444 325 444 359 l 250 325 q 263 420 250 379 q 307 495 276 460 q 378 556 337 529 q 485 616 419 584 q 578 691 553 650 q 603 786 603 732 q 545 912 603 869 q 388 956 488 956 q 362 956 378 956 q 302 950 347 956 q 220 933 258 945 q 139 896 182 922 q 71 833 96 870 l 47 856 m 250 0 l 250 227 l 444 227 l 444 0 l 250 0 z "},"@":{"ha":1301,"x_min":78,"x_max":1223,"o":"m 115 205 q 97 258 115 205 q 86 425 78 310 q 146 644 94 539 q 280 824 199 748 q 468 944 361 899 q 690 989 576 989 q 906 944 805 989 q 1078 824 1008 899 q 1185 644 1148 748 q 1215 425 1223 539 q 1214 413 1215 420 q 1209 383 1213 406 q 1199 339 1205 361 q 1183 287 1194 317 q 1159 232 1172 257 q 1124 180 1145 206 q 1079 136 1103 154 q 1021 106 1055 117 q 948 94 987 94 q 803 189 844 94 q 586 140 709 140 q 573 140 581 140 q 543 143 566 140 q 500 151 521 146 q 455 168 479 156 q 412 196 430 179 q 381 239 393 212 q 369 300 369 267 q 390 366 369 338 q 446 411 412 394 q 522 440 481 427 q 606 464 564 452 q 682 488 648 475 q 739 523 717 501 q 762 572 762 544 q 749 622 763 601 q 715 651 736 642 q 674 666 694 661 q 639 671 654 671 l 625 672 l 578 672 l 534 585 l 425 585 l 425 690 l 661 690 q 673 690 662 689 q 703 688 684 692 q 744 681 722 685 q 789 666 766 677 q 831 639 812 654 q 862 597 850 624 q 876 538 874 571 l 876 537 l 876 320 q 876 298 877 319 q 878 246 874 278 q 888 184 882 214 q 910 132 894 154 q 948 111 926 111 q 996 137 970 111 q 1045 207 1022 164 q 1086 308 1068 250 q 1109 425 1103 366 q 1068 668 1119 557 q 917 843 1018 778 q 685 908 816 908 q 498 870 587 908 q 345 767 410 831 q 239 613 280 702 q 191 425 198 524 q 232 181 182 292 q 384 6 283 71 q 616 -59 485 -59 q 854 5 745 -59 l 889 -68 q 610 -139 759 -139 q 394 -94 495 -139 q 222 26 292 -50 q 115 205 153 101 m 487 260 q 502 212 488 233 q 537 181 517 191 q 578 166 557 172 q 612 159 598 160 l 626 159 q 730 171 690 159 q 798 203 766 182 q 779 336 779 255 l 779 408 q 705 384 750 396 q 625 363 660 372 q 556 341 589 354 q 505 309 523 329 q 487 260 486 289 z "},"A":{"ha":973,"x_min":26,"x_max":946,"o":"m 26 -1 l 383 971 l 590 971 l 946 -1 l 739 -1 l 608 356 l 194 356 l 165 279 l 288 149 l 233 -1 l 26 -1 m 206 388 l 595 388 l 400 917 l 206 388 z "},"B":{"ha":1088,"x_min":109,"x_max":1015,"o":"m 109 894 l 262 970 l 610 970 q 758 957 690 970 q 878 915 825 943 q 961 839 931 886 q 991 728 991 791 q 932 583 991 639 q 772 503 873 528 q 948 418 882 479 q 1015 258 1015 357 q 983 140 1015 191 q 898 59 952 89 q 775 14 843 29 q 627 -1 707 -1 l 109 -1 l 109 894 m 302 32 l 529 32 q 601 38 565 32 q 674 61 637 45 q 741 102 712 77 q 787 167 769 127 q 805 258 805 208 q 787 350 805 309 q 741 415 769 390 q 675 456 713 439 q 602 478 638 472 q 530 485 566 485 l 302 485 l 302 32 m 302 517 l 529 517 q 598 523 565 517 q 666 544 632 529 q 725 583 700 559 q 766 643 750 606 q 781 728 781 680 q 766 813 781 775 q 725 873 750 850 q 666 912 700 897 q 598 933 631 927 q 528 939 564 939 l 302 939 l 302 517 z "},"C":{"ha":1144,"x_min":113,"x_max":1032,"o":"m 139 294 q 126 336 139 294 q 113 481 113 378 q 139 669 113 585 q 213 809 166 753 q 323 905 259 866 q 461 961 388 943 q 617 978 534 978 l 1032 970 l 1032 783 l 824 787 l 749 943 l 616 946 q 530 930 571 946 q 450 879 488 915 q 385 791 412 844 q 340 659 357 739 q 324 481 324 579 q 341 304 324 384 q 385 172 357 224 q 451 84 413 120 q 530 33 489 49 q 617 18 572 18 q 642 18 621 19 q 654 18 646 18 q 707 20 673 18 q 800 30 751 24 q 908 51 848 36 q 1018 87 968 66 l 1031 57 q 909 18 973 34 q 795 -4 845 2 q 704 -14 746 -11 q 648 -16 670 -16 q 640 -16 644 -16 l 617 -15 q 461 2 534 -15 q 323 58 388 20 q 213 154 259 97 q 139 294 166 210 z "},"D":{"ha":1091,"x_min":109,"x_max":1023,"o":"m 109 -1 l 109 890 l 262 970 l 521 970 q 676 954 603 970 q 813 899 749 937 q 923 806 878 862 q 996 669 969 751 q 1023 485 1023 587 q 996 302 1023 384 q 923 164 969 220 q 813 71 877 109 q 676 16 749 33 q 521 -1 603 -1 l 109 -1 m 302 32 l 521 32 q 628 57 578 32 q 721 134 679 82 q 788 275 763 185 q 812 485 812 366 q 788 694 812 604 q 721 837 763 785 q 628 913 679 888 q 521 939 578 939 l 302 939 l 302 32 z "},"E":{"ha":916,"x_min":109,"x_max":853,"o":"m 109 -1 l 109 890 l 262 971 l 853 971 l 853 785 l 659 785 l 582 939 l 302 939 l 302 517 l 691 517 l 691 486 l 302 486 l 302 32 l 582 32 l 659 186 l 853 186 l 853 -1 l 109 -1 z "},"F":{"ha":884,"x_min":109,"x_max":853,"o":"m 109 -1 l 109 890 l 262 971 l 853 971 l 853 785 l 659 785 l 582 939 l 302 939 l 302 517 l 691 517 l 691 486 l 302 486 l 302 -1 l 109 -1 z "},"G":{"ha":1079,"x_min":69,"x_max":988,"o":"m 69 473 q 96 663 69 578 q 168 806 122 748 q 277 903 214 864 q 413 960 341 942 q 567 977 486 977 l 988 968 l 988 782 l 780 786 l 706 943 l 567 945 q 481 928 523 945 q 403 874 440 911 q 338 783 366 837 q 294 649 310 729 q 277 473 277 570 q 281 401 277 437 q 294 320 284 365 q 320 236 304 275 q 365 158 336 197 q 431 92 393 119 q 523 48 468 65 q 644 32 578 32 q 793 43 724 32 l 793 424 l 557 424 l 557 456 l 988 456 l 988 58 q 566 -16 790 -16 q 413 1 485 -16 q 277 56 340 18 q 168 150 214 94 q 96 289 122 206 q 69 473 69 372 z "},"H":{"ha":1097,"x_min":111,"x_max":985,"o":"m 111 0 l 111 970 l 305 971 l 305 518 l 791 518 l 791 970 l 985 971 l 985 0 l 791 0 l 791 486 l 305 486 l 305 0 l 111 0 z "},"I":{"ha":416,"x_min":111,"x_max":305,"o":"m 111 0 l 111 970 l 305 970 l 305 0 l 111 0 z "},"J":{"ha":416,"x_min":46,"x_max":304,"o":"m 46 -162 q 111 56 111 -162 l 111 970 l 304 971 l 304 32 q 229 -132 304 -69 q 46 -195 153 -195 l 46 -162 z "},"K":{"ha":1010,"x_min":111,"x_max":985,"o":"m 111 0 l 111 970 l 305 970 l 305 349 l 677 730 l 622 892 l 699 970 l 972 970 l 550 542 l 985 -1 l 736 -1 l 413 402 l 305 292 l 305 -1 l 111 0 z "},"L":{"ha":884,"x_min":109,"x_max":853,"o":"m 109 81 l 109 971 l 302 971 l 302 32 l 582 32 l 659 186 l 853 186 l 853 -1 l 262 -1 l 109 81 z "},"M":{"ha":1251,"x_min":111,"x_max":1139,"o":"m 111 -1 l 111 971 l 327 971 l 671 258 l 942 971 l 1139 970 l 1139 -1 l 945 -1 l 945 865 l 612 -8 l 569 -8 l 151 884 l 151 271 l 305 194 l 305 -1 l 111 -1 z "},"N":{"ha":1126,"x_min":111,"x_max":1016,"o":"m 111 -3 l 111 968 l 351 968 l 975 86 l 975 697 l 822 774 l 822 968 l 1016 968 l 1016 29 l 800 -8 l 151 911 l 151 269 l 305 191 l 305 -3 l 111 -3 z "},"O":{"ha":1143,"x_min":69,"x_max":1073,"o":"m 96 296 q 83 338 96 296 q 69 485 69 380 q 96 674 69 589 q 169 817 123 759 q 279 913 215 874 q 416 969 343 951 q 571 987 489 987 q 726 969 653 987 q 863 913 799 951 q 973 817 927 874 q 1046 674 1019 759 q 1073 485 1073 589 q 1046 296 1073 380 q 973 153 1019 211 q 863 57 927 96 q 726 1 799 18 q 571 -17 653 -17 q 416 1 489 -17 q 279 57 343 18 q 169 153 215 96 q 96 296 123 211 m 296 664 q 288 624 296 664 q 280 485 280 584 q 296 306 280 386 q 340 172 313 225 q 406 83 368 119 q 485 31 444 47 q 571 16 526 16 q 679 42 628 16 q 771 122 729 68 q 838 269 813 176 q 863 485 863 362 q 846 664 863 584 q 802 798 829 745 q 736 887 774 851 q 657 939 699 924 q 571 955 616 955 q 485 939 526 955 q 406 887 444 923 q 340 798 368 851 q 296 664 313 745 z "},"P":{"ha":1054,"x_min":109,"x_max":1006,"o":"m 109 -1 l 109 890 l 261 970 l 617 970 q 765 954 697 970 q 888 903 833 937 q 975 812 943 869 q 1006 680 1006 755 q 985 569 1006 618 q 929 487 964 520 q 843 431 893 454 q 737 398 793 408 q 617 388 681 388 l 302 388 l 302 -1 l 109 -1 m 302 420 l 536 420 q 607 428 572 420 q 676 455 642 436 q 738 503 711 474 q 780 577 764 531 q 796 680 796 623 q 780 782 796 736 q 738 857 764 828 q 676 904 711 885 q 607 931 642 923 q 536 939 572 939 l 302 939 l 302 420 z "},"Q":{"ha":1143,"x_min":69,"x_max":1073,"o":"m 96 296 q 83 338 96 296 q 69 485 69 380 q 96 674 69 589 q 169 817 123 759 q 279 913 215 874 q 416 969 343 951 q 571 987 489 987 q 726 969 653 987 q 863 913 799 951 q 973 817 927 874 q 1046 674 1019 759 q 1073 485 1073 589 q 1043 284 1073 373 q 960 137 1013 195 q 837 42 906 78 q 684 -7 768 7 l 861 -195 l 594 -195 l 473 -67 l 573 -17 l 571 -17 q 416 1 489 -17 q 279 57 343 18 q 169 153 215 96 q 96 296 123 211 m 296 664 q 288 624 296 664 q 280 485 280 584 q 296 306 280 386 q 340 172 313 225 q 406 83 368 119 q 485 31 444 47 q 571 16 526 16 q 679 42 628 16 q 771 122 729 68 q 838 269 813 176 q 863 485 863 362 q 846 664 863 584 q 802 798 829 745 q 736 887 774 851 q 657 939 699 924 q 571 955 616 955 q 485 939 526 955 q 406 887 444 923 q 340 798 368 851 q 296 664 313 745 z "},"R":{"ha":1091,"x_min":109,"x_max":1042,"o":"m 109 -1 l 109 890 l 262 970 l 617 970 q 765 954 697 970 q 888 903 833 937 q 975 812 943 869 q 1006 680 1006 755 q 928 487 1006 557 q 722 396 850 416 l 1042 0 l 793 -1 l 479 388 l 302 388 l 302 -1 l 109 -1 m 302 420 l 536 420 q 606 428 572 420 q 676 455 641 436 q 737 503 711 474 q 780 577 764 531 q 796 680 796 623 q 780 782 796 736 q 737 857 764 828 q 676 904 711 885 q 606 931 641 923 q 536 939 572 939 l 302 939 l 302 420 z "},"S":{"ha":1027,"x_min":58,"x_max":962,"o":"m 58 692 q 68 771 58 735 q 95 835 78 808 q 137 884 112 862 q 189 920 162 905 q 250 945 216 935 q 314 962 283 956 q 381 971 345 968 q 446 977 418 975 q 506 977 473 978 l 921 969 l 921 782 l 713 786 l 638 943 q 506 945 581 945 q 456 943 481 945 q 394 929 431 940 q 329 901 357 918 q 281 848 302 883 q 261 767 261 813 q 285 694 261 726 q 350 641 309 663 q 443 601 390 619 q 553 568 495 583 q 670 536 612 552 q 780 497 728 519 q 873 446 833 474 q 938 376 913 418 q 962 281 962 334 q 946 193 962 234 q 904 123 930 152 q 844 72 878 95 q 773 35 810 49 q 699 10 736 20 q 627 -5 661 -1 q 567 -13 593 -10 q 526 -16 541 -16 l 510 -16 q 299 -2 394 -16 q 92 56 204 12 l 105 86 q 212 47 153 62 q 321 25 271 31 q 416 16 373 19 q 473 15 450 14 q 485 15 479 15 l 510 16 q 524 17 515 16 q 557 21 532 17 q 605 31 583 24 q 656 52 628 37 q 704 86 684 66 q 737 138 724 106 q 751 210 751 170 q 712 301 751 263 q 613 360 674 338 q 478 400 552 382 q 331 439 405 418 q 196 489 257 460 q 97 570 135 518 q 58 692 58 621 z "},"T":{"ha":1119,"x_min":29,"x_max":1089,"o":"m 29 785 l 29 971 l 1089 971 l 1089 785 l 895 785 l 819 939 l 656 939 l 656 0 l 463 0 l 463 939 l 300 939 l 224 785 l 29 785 z "},"U":{"ha":1029,"x_min":97,"x_max":931,"o":"m 97 358 l 97 970 l 292 970 l 292 350 q 309 217 292 276 q 362 114 326 158 q 456 47 398 71 q 591 24 514 24 q 701 48 647 24 q 796 114 754 72 q 864 217 838 155 q 890 350 890 279 l 890 700 l 736 777 l 736 970 l 931 970 l 931 358 q 927 294 931 326 q 910 224 922 262 q 878 153 897 186 q 826 87 859 119 q 751 33 793 56 q 648 -3 709 10 q 515 -17 588 -17 q 381 -3 442 -17 q 278 33 320 11 q 202 87 235 56 q 150 153 170 119 q 118 224 131 186 q 101 294 106 262 q 97 358 97 326 z "},"V":{"ha":970,"x_min":25,"x_max":945,"o":"m 25 971 l 232 971 l 568 55 l 803 694 l 683 822 l 738 971 l 945 971 l 589 -1 l 381 -1 l 25 971 z "},"W":{"ha":1454,"x_min":26,"x_max":1427,"o":"m 26 972 l 232 972 l 549 58 l 707 511 l 547 972 l 751 972 l 752 972 l 752 972 l 1069 58 l 1291 695 l 1289 697 l 1168 821 l 1221 972 l 1427 972 l 1089 1 l 884 1 l 727 452 l 726 453 l 570 1 l 363 1 l 26 972 z "},"X":{"ha":972,"x_min":25,"x_max":943,"o":"m 25 1 l 390 464 l 42 972 l 42 972 l 277 972 l 564 553 l 694 721 l 621 876 l 696 972 l 943 972 l 588 519 l 943 1 l 707 1 l 413 430 l 275 252 l 348 96 l 273 1 l 25 1 z "},"Y":{"ha":948,"x_min":17,"x_max":932,"o":"m 17 971 l 237 971 l 557 359 l 741 699 l 641 839 l 712 972 l 932 972 l 572 298 l 572 0 l 378 0 l 378 283 l 17 971 z "},"Z":{"ha":943,"x_min":37,"x_max":900,"o":"m 37 -1 l 647 939 l 353 939 l 276 785 l 82 785 l 82 971 l 900 971 l 290 32 l 620 32 l 697 186 l 891 186 l 891 -1 l 37 -1 z "},"[":{"ha":319,"x_min":111,"x_max":313,"o":"m 111 -137 l 111 1093 l 313 1093 l 313 1061 l 208 1061 l 208 -105 l 313 -105 l 313 -137 l 111 -137 z "},"\\":{"ha":493,"x_min":61,"x_max":433,"o":"m 61 964 l 158 964 l 433 -7 l 335 -7 l 61 964 z "},"]":{"ha":319,"x_min":5,"x_max":208,"o":"m 5 -105 l 111 -105 l 111 1061 l 5 1061 l 5 1093 l 208 1093 l 208 -137 l 5 -137 l 5 -105 z "},"^":{"ha":669,"x_min":50,"x_max":621,"o":"m 50 353 l 313 952 l 357 952 l 621 350 l 615 353 l 517 353 l 335 799 l 151 353 l 50 353 z "},"_":{"ha":970,"x_min":111,"x_max":859,"o":"m 111 -136 l 859 -136 l 859 -168 l 111 -168 l 111 -136 z "},"`":{"ha":456,"x_min":111,"x_max":345,"o":"m 111 1208 l 234 1208 l 345 1039 l 252 1039 l 111 1208 z "},"a":{"ha":976,"x_min":28,"x_max":947,"o":"m 28 -1 l 385 971 l 591 971 l 947 -1 l 741 -1 l 609 356 l 195 356 l 167 279 l 290 149 l 235 -1 l 28 -1 m 208 388 l 597 388 l 401 917 l 208 388 z "},"b":{"ha":1091,"x_min":110,"x_max":1016,"o":"m 110 894 l 264 970 l 612 970 q 759 957 692 970 q 879 915 826 943 q 962 839 932 886 q 992 728 992 791 q 933 583 992 639 q 773 503 874 528 q 950 418 884 479 q 1016 258 1016 357 q 985 140 1016 191 q 899 59 954 89 q 776 14 844 29 q 628 -1 708 -1 l 111 -1 l 110 894 m 304 32 l 530 32 q 602 38 566 32 q 676 61 638 45 q 742 102 713 77 q 788 167 770 127 q 806 258 806 208 q 788 350 806 309 q 742 415 770 390 q 677 456 714 439 q 604 478 640 472 q 532 485 568 485 l 304 485 l 304 32 m 304 517 l 530 517 q 600 523 566 517 q 667 544 633 529 q 726 583 701 559 q 767 643 751 606 q 783 728 783 680 q 767 813 783 775 q 726 873 751 850 q 667 912 701 897 q 599 933 633 927 q 530 939 566 939 l 304 939 l 304 517 z "},"c":{"ha":1144,"x_min":113,"x_max":1032,"o":"m 139 294 q 126 336 139 294 q 113 481 113 378 q 139 669 113 585 q 213 809 166 753 q 323 905 259 866 q 461 961 388 943 q 617 978 534 978 l 1032 970 l 1032 783 l 824 787 l 749 943 l 616 946 q 530 930 571 946 q 450 879 488 915 q 385 791 412 844 q 340 659 357 739 q 324 481 324 579 q 341 304 324 384 q 385 172 357 224 q 451 84 413 120 q 530 33 489 49 q 617 18 572 18 q 642 18 621 19 q 654 18 646 18 q 707 20 673 18 q 800 30 751 24 q 908 51 848 36 q 1018 87 968 66 l 1031 57 q 909 18 973 34 q 795 -4 845 2 q 704 -14 746 -11 q 648 -16 670 -16 q 640 -16 644 -16 l 617 -15 q 461 2 534 -15 q 323 58 388 20 q 213 154 259 97 q 139 294 166 210 z "},"d":{"ha":1094,"x_min":110,"x_max":1024,"o":"m 110 -1 l 110 890 l 263 970 l 522 970 q 677 954 604 970 q 814 899 750 937 q 925 806 879 862 q 997 669 970 751 q 1024 485 1024 587 q 997 302 1024 384 q 924 164 970 220 q 814 71 878 109 q 677 16 750 33 q 522 -1 604 -1 l 110 -1 m 304 32 l 522 32 q 630 57 579 32 q 722 134 680 82 q 789 275 764 185 q 814 485 814 366 q 789 694 814 604 q 722 837 764 785 q 630 913 680 888 q 522 939 579 939 l 304 939 l 304 32 z "},"e":{"ha":919,"x_min":110,"x_max":854,"o":"m 110 -1 l 110 890 l 263 971 l 854 971 l 854 785 l 660 785 l 583 939 l 304 939 l 304 517 l 692 517 l 692 486 l 304 486 l 304 32 l 583 32 l 660 186 l 854 186 l 854 -1 l 110 -1 z "},"f":{"ha":887,"x_min":110,"x_max":854,"o":"m 110 -1 l 110 890 l 263 971 l 854 971 l 854 785 l 660 785 l 583 939 l 304 939 l 304 517 l 692 517 l 692 486 l 304 486 l 304 -1 l 110 -1 z "},"g":{"ha":1082,"x_min":71,"x_max":989,"o":"m 71 474 q 97 664 71 578 q 169 807 123 749 q 279 904 215 865 q 415 960 342 943 q 568 978 487 978 l 989 969 l 989 783 l 782 787 l 707 943 l 568 945 q 462 918 513 945 q 370 835 412 890 q 304 687 329 780 q 279 474 279 593 q 282 401 279 437 q 296 320 286 366 q 322 236 306 275 q 366 159 338 197 q 432 93 395 120 q 524 49 469 66 q 646 33 579 33 q 795 44 726 33 l 795 425 l 559 425 l 559 457 l 989 457 l 989 59 q 568 -15 791 -15 q 414 2 486 -15 q 278 57 342 19 q 169 151 215 95 q 97 290 123 207 q 71 474 71 372 z "},"h":{"ha":1100,"x_min":113,"x_max":987,"o":"m 113 0 l 113 970 l 307 971 l 307 518 l 792 518 l 792 970 l 987 971 l 987 0 l 792 0 l 792 486 l 307 486 l 307 0 l 113 0 z "},"i":{"ha":419,"x_min":113,"x_max":307,"o":"m 113 0 l 113 970 l 307 970 l 307 0 l 113 0 z "},"j":{"ha":419,"x_min":47,"x_max":307,"o":"m 47 -162 q 112 56 112 -162 l 112 970 l 307 971 l 307 32 q 231 -132 307 -69 q 47 -195 155 -195 l 47 -162 z "},"k":{"ha":1014,"x_min":113,"x_max":987,"o":"m 113 0 l 113 970 l 307 970 l 307 349 l 679 730 l 623 892 l 701 970 l 974 970 l 551 542 l 987 -1 l 738 -1 l 414 402 l 307 292 l 307 -1 l 113 0 z "},"l":{"ha":886,"x_min":110,"x_max":854,"o":"m 110 81 l 110 971 l 304 971 l 304 32 l 583 32 l 660 186 l 854 186 l 854 -1 l 263 -1 l 110 81 z "},"m":{"ha":1254,"x_min":113,"x_max":1140,"o":"m 113 -1 l 113 971 l 328 971 l 672 258 l 943 971 l 1140 970 l 1140 -1 l 946 -1 l 946 865 l 614 -8 l 570 -8 l 153 884 l 153 271 l 307 194 l 307 -1 l 113 -1 z "},"n":{"ha":1129,"x_min":113,"x_max":1017,"o":"m 113 -3 l 113 968 l 353 968 l 977 86 l 977 697 l 823 774 l 823 968 l 1017 968 l 1017 29 l 802 -8 l 153 911 l 153 269 l 307 191 l 307 -3 l 113 -3 z "},"o":{"ha":1145,"x_min":71,"x_max":1074,"o":"m 97 296 q 84 338 97 296 q 71 485 71 380 q 97 674 71 589 q 170 817 124 759 q 280 913 216 874 q 417 969 345 951 q 572 987 490 987 q 727 969 654 987 q 864 913 800 951 q 975 817 928 874 q 1047 674 1021 759 q 1074 485 1074 589 q 1047 296 1074 380 q 975 153 1021 211 q 864 57 928 96 q 727 1 800 18 q 572 -17 654 -17 q 417 1 490 -17 q 280 57 345 18 q 170 153 216 96 q 97 296 124 211 m 298 664 q 290 624 298 664 q 281 485 281 584 q 298 306 281 386 q 342 172 314 225 q 407 83 370 119 q 486 31 445 47 q 572 16 527 16 q 680 42 629 16 q 772 122 730 68 q 839 269 814 176 q 864 485 864 362 q 847 664 864 584 q 803 798 831 745 q 738 887 776 851 q 659 939 700 924 q 572 955 617 955 q 486 939 527 955 q 407 887 445 923 q 342 798 370 851 q 298 664 314 745 z "},"p":{"ha":1057,"x_min":110,"x_max":1007,"o":"m 110 -1 l 110 890 l 262 970 l 618 970 q 767 954 699 970 q 890 903 835 937 q 976 812 945 869 q 1007 680 1007 755 q 986 569 1007 618 q 930 487 966 520 q 845 431 895 454 q 739 398 795 408 q 618 388 682 388 l 304 388 l 304 -1 l 110 -1 m 304 420 l 538 420 q 608 428 574 420 q 678 455 643 436 q 739 503 713 474 q 781 577 765 531 q 798 680 798 623 q 781 782 798 736 q 739 857 765 828 q 678 904 713 885 q 608 931 643 923 q 538 939 574 939 l 304 939 l 304 420 z "},"q":{"ha":1145,"x_min":71,"x_max":1074,"o":"m 97 296 q 84 338 97 296 q 71 485 71 380 q 97 674 71 589 q 170 817 124 759 q 280 913 216 874 q 417 969 345 951 q 572 987 490 987 q 727 969 654 987 q 864 913 800 951 q 975 817 928 874 q 1047 674 1021 759 q 1074 485 1074 589 q 1044 284 1074 373 q 961 137 1015 195 q 839 42 907 78 q 686 -7 770 7 l 862 -195 l 595 -195 l 475 -67 l 574 -17 l 572 -17 q 417 1 490 -17 q 280 57 345 18 q 170 153 216 96 q 97 296 124 211 m 298 664 q 290 624 298 664 q 281 485 281 584 q 298 306 281 386 q 342 172 314 225 q 407 83 370 119 q 486 31 445 47 q 572 16 527 16 q 680 42 629 16 q 772 122 730 68 q 839 269 814 176 q 864 485 864 362 q 847 664 864 584 q 803 798 831 745 q 738 887 776 851 q 659 939 700 924 q 572 955 617 955 q 486 939 527 955 q 407 887 445 923 q 342 798 370 851 q 298 664 314 745 z "},"r":{"ha":1094,"x_min":110,"x_max":1044,"o":"m 110 -1 l 110 890 l 264 970 l 618 970 q 767 954 699 970 q 890 903 835 937 q 976 812 945 869 q 1007 680 1007 755 q 929 487 1007 557 q 724 396 852 416 l 1044 0 l 794 -1 l 481 388 l 304 388 l 304 -1 l 110 -1 m 304 420 l 538 420 q 608 428 574 420 q 678 455 643 436 q 739 503 713 474 q 781 577 765 531 q 798 680 798 623 q 781 782 798 736 q 739 857 765 828 q 678 904 713 885 q 608 931 643 923 q 538 939 574 939 l 304 939 l 304 420 z "},"s":{"ha":1030,"x_min":60,"x_max":963,"o":"m 60 692 q 70 771 60 735 q 96 835 79 808 q 138 884 113 862 q 190 920 163 905 q 251 945 217 935 q 315 962 285 956 q 382 971 346 968 q 447 977 419 975 q 507 977 475 978 l 922 969 l 922 782 l 714 786 l 640 943 q 507 945 583 945 q 458 943 483 945 q 395 929 433 940 q 331 901 358 918 q 283 848 303 883 q 262 767 262 813 q 287 694 262 726 q 351 641 311 663 q 444 601 391 619 q 555 568 496 583 q 671 536 613 552 q 782 497 729 519 q 874 446 834 474 q 939 376 915 418 q 963 281 963 334 q 947 193 963 234 q 906 123 932 152 q 846 72 880 95 q 774 35 812 49 q 700 10 737 20 q 629 -5 663 -1 q 569 -13 595 -10 q 527 -16 543 -16 l 511 -16 q 300 -2 395 -16 q 94 56 205 12 l 106 86 q 214 47 155 62 q 323 25 273 31 q 418 16 374 19 q 474 15 452 14 q 486 15 481 15 l 511 16 q 525 17 516 16 q 559 21 534 17 q 607 31 584 24 q 657 52 629 37 q 705 86 685 66 q 739 138 725 106 q 752 210 752 170 q 714 301 752 263 q 614 360 675 338 q 480 400 553 382 q 332 439 406 418 q 197 489 258 460 q 98 570 136 518 q 60 692 60 621 z "},"t":{"ha":1122,"x_min":31,"x_max":1090,"o":"m 31 785 l 31 971 l 1090 971 l 1090 785 l 897 785 l 820 939 l 658 939 l 658 0 l 464 0 l 464 939 l 302 939 l 225 785 l 31 785 z "},"u":{"ha":1031,"x_min":98,"x_max":932,"o":"m 98 358 l 98 970 l 293 970 l 293 350 q 310 217 293 276 q 363 114 328 158 q 457 47 399 71 q 593 24 515 24 q 702 48 648 24 q 798 114 755 72 q 866 217 840 155 q 892 350 892 279 l 892 700 l 738 777 l 738 970 l 932 970 l 932 358 q 928 294 932 326 q 911 224 924 262 q 879 153 899 186 q 827 87 860 119 q 752 33 794 56 q 650 -3 710 10 q 517 -17 589 -17 q 382 -3 444 -17 q 279 33 321 11 q 204 87 237 56 q 152 153 171 119 q 120 224 132 186 q 103 294 107 262 q 98 358 98 326 z "},"v":{"ha":970,"x_min":25,"x_max":945,"o":"m 25 971 l 232 971 l 568 55 l 803 694 l 683 822 l 738 971 l 945 971 l 589 -1 l 381 -1 l 25 971 z "},"w":{"ha":1454,"x_min":26,"x_max":1427,"o":"m 26 972 l 232 972 l 549 58 l 707 511 l 547 972 l 751 972 l 752 972 l 752 972 l 1069 58 l 1291 695 l 1289 697 l 1168 821 l 1221 972 l 1427 972 l 1089 1 l 884 1 l 727 452 l 726 453 l 570 1 l 363 1 l 26 972 z "},"x":{"ha":975,"x_min":26,"x_max":945,"o":"m 26 1 l 391 464 l 43 972 l 43 972 l 278 972 l 566 553 l 696 721 l 623 876 l 697 972 l 945 972 l 589 519 l 945 1 l 709 1 l 414 430 l 276 252 l 349 96 l 274 1 l 26 1 z "},"y":{"ha":949,"x_min":18,"x_max":933,"o":"m 18 971 l 238 971 l 559 359 l 742 699 l 642 839 l 713 972 l 933 972 l 573 298 l 573 0 l 379 0 l 379 283 l 18 971 z "},"z":{"ha":945,"x_min":39,"x_max":901,"o":"m 39 -1 l 648 939 l 354 939 l 277 785 l 83 785 l 83 971 l 901 971 l 292 32 l 621 32 l 699 186 l 892 186 l 892 -1 l 39 -1 z "},"{":{"ha":382,"x_min":75,"x_max":370,"o":"m 75 461 l 75 494 q 126 508 105 494 q 156 540 147 521 q 169 578 165 559 q 174 610 174 597 l 173 623 l 173 939 q 193 1020 173 987 q 242 1067 214 1053 q 300 1088 271 1081 q 349 1094 329 1095 l 370 1093 l 370 1061 q 319 1047 340 1061 q 289 1015 298 1034 q 275 977 279 996 q 271 945 271 958 l 271 932 l 270 616 q 205 478 270 513 q 270 340 270 443 l 271 24 q 270 17 271 23 q 272 -2 269 10 q 276 -27 274 -14 q 286 -55 278 -41 q 303 -80 294 -68 q 331 -98 313 -91 q 370 -105 348 -105 l 370 -137 q 358 -137 366 -137 q 331 -136 351 -138 q 292 -130 311 -134 q 251 -115 273 -126 q 212 -89 228 -104 q 184 -45 195 -73 q 173 16 173 -18 l 173 333 q 173 340 172 334 q 172 358 174 347 q 168 384 170 370 q 159 411 166 397 q 141 436 151 425 q 114 454 132 447 q 75 461 97 461 z "},"|":{"ha":264,"x_min":111,"x_max":152,"o":"m 111 -203 l 111 1172 l 152 1172 l 152 -203 l 111 -203 z "},"}":{"ha":382,"x_min":11,"x_max":306,"o":"m 11 -104 q 62 -91 41 -104 q 92 -59 83 -78 q 106 -21 101 -40 q 111 11 111 -3 l 111 24 l 111 340 q 175 478 111 443 q 111 616 111 513 l 111 932 q 111 940 110 933 q 110 958 112 946 q 105 983 107 970 q 95 1010 102 996 q 77 1035 87 1024 q 50 1054 67 1046 q 11 1061 33 1061 l 12 1093 q 23 1094 16 1093 q 50 1092 30 1094 q 89 1086 71 1090 q 130 1071 107 1082 q 169 1044 153 1060 q 196 1001 185 1028 q 208 939 208 974 l 208 623 q 207 616 208 623 q 208 598 206 610 q 213 572 210 586 q 222 545 215 559 q 240 520 230 531 q 267 502 250 509 q 306 494 284 494 l 306 461 q 255 448 276 461 q 225 416 234 435 q 212 378 216 397 q 208 346 207 359 l 208 333 l 208 17 q 187 -64 208 -31 q 138 -111 167 -97 q 81 -132 110 -125 q 32 -138 52 -138 l 12 -137 l 11 -104 z "},"~":{"ha":957,"x_min":46,"x_max":910,"o":"m 46 390 l 46 486 q 203 559 129 541 q 333 569 277 578 q 442 538 389 559 q 546 497 495 517 q 650 469 597 477 q 769 485 703 462 q 910 567 836 507 l 910 470 q 753 395 827 416 q 623 383 680 375 q 514 411 567 391 q 410 449 461 430 q 306 477 359 469 q 187 465 254 485 q 46 390 120 444 z "}," ":{"ha":500,"x_min":0,"x_max":0,"o":""},"¡":{"ha":406,"x_min":97,"x_max":308,"o":"m 97 -85 l 97 142 l 121 563 l 283 563 l 308 142 l 308 -85 l 97 -85 m 105 661 l 105 888 l 300 888 l 300 661 l 105 661 z "},"¢":{"ha":1030,"x_min":81,"x_max":947,"o":"m 81 477 q 102 627 81 563 q 159 731 123 690 q 253 796 196 771 q 372 830 309 821 q 517 841 435 840 l 517 971 l 558 971 l 558 842 l 947 842 l 947 655 l 753 655 l 676 809 l 558 809 l 558 146 q 711 149 598 137 q 937 198 824 160 l 947 168 q 558 113 766 107 l 558 -1 l 517 -1 l 517 115 q 81 477 81 139 m 291 477 q 355 261 291 345 q 517 153 420 176 l 517 808 q 351 722 410 802 q 291 477 291 641 z "},"£":{"ha":1037,"x_min":79,"x_max":967,"o":"m 79 4 l 79 37 l 158 37 q 174 183 174 121 q 167 378 174 249 l 79 378 l 79 410 l 165 410 q 161 553 161 471 l 79 553 l 79 585 l 162 585 q 182 703 163 646 q 240 813 201 760 q 335 905 279 865 q 470 968 390 945 q 644 991 550 991 l 646 991 q 692 992 663 992 q 806 982 722 992 q 967 950 891 972 l 958 920 q 810 949 888 939 q 689 959 732 959 l 645 959 q 629 959 639 960 q 589 953 618 959 q 531 936 559 947 q 471 896 504 924 q 413 831 437 869 q 373 729 389 793 q 355 585 356 665 l 773 585 l 773 553 l 355 553 q 357 410 355 489 l 773 410 l 773 378 l 357 378 q 360 283 358 345 q 363 192 363 222 q 347 37 363 130 l 690 37 l 767 191 l 962 191 l 962 4 l 79 4 z "},"¤":{"ha":793,"x_min":64,"x_max":728,"o":"m 64 214 l 241 391 q 219 478 219 431 q 241 564 219 525 l 64 741 l 133 810 l 310 633 q 396 655 349 655 q 482 633 443 655 l 659 810 l 728 741 l 551 564 q 574 478 574 525 q 551 391 574 431 l 728 214 l 659 146 l 482 323 q 396 300 443 300 q 309 323 349 300 l 133 146 l 64 214 m 305 478 q 332 410 305 437 q 396 383 358 383 q 461 411 436 383 q 487 478 487 439 q 461 545 487 518 q 396 572 435 572 q 332 545 358 572 q 305 478 305 517 z "},"¥":{"ha":1031,"x_min":58,"x_max":973,"o":"m 58 971 l 279 971 l 600 359 l 782 699 l 682 839 l 753 972 l 973 972 l 625 319 l 865 319 l 865 287 l 614 287 l 614 144 l 865 144 l 865 112 l 614 112 l 614 0 l 419 0 l 419 112 l 169 112 l 169 144 l 419 144 l 419 283 l 418 287 l 169 287 l 169 319 l 401 319 l 58 971 z "},"§":{"ha":654,"x_min":100,"x_max":554,"o":"m 100 148 l 189 148 q 227 27 189 71 q 327 -17 265 -17 q 428 12 390 -17 q 466 98 466 41 q 429 193 466 147 q 327 264 392 239 q 220 311 247 295 q 101 492 109 372 q 100 513 100 503 q 180 677 100 616 q 100 851 100 750 q 165 996 100 943 q 327 1048 229 1048 q 490 984 426 1048 q 554 802 554 920 l 466 802 q 427 922 466 878 q 327 966 389 966 q 226 937 264 966 q 189 851 189 909 q 225 755 189 802 q 327 684 262 709 q 344 677 332 682 q 469 616 431 645 q 554 436 553 551 q 475 272 554 334 q 554 98 554 199 q 489 -46 554 7 q 327 -100 425 -100 q 164 -35 228 -100 q 100 148 100 30 m 189 513 q 199 451 189 478 q 230 407 209 425 q 272 377 250 389 q 327 355 294 366 q 399 323 361 343 q 448 369 431 340 q 466 436 466 398 q 456 498 466 471 q 425 543 446 525 q 381 572 404 561 q 327 595 359 583 q 254 626 293 606 q 189 513 189 591 z "},"¨":{"ha":707,"x_min":111,"x_max":595,"o":"m 111 1039 l 111 1207 l 305 1207 l 305 1039 l 111 1039 m 401 1039 l 401 1207 l 595 1207 l 595 1039 l 401 1039 z "},"©":{"ha":1171,"x_min":83,"x_max":1087,"o":"m 123 290 q 103 337 123 290 q 83 486 83 383 q 123 681 83 588 q 230 841 163 774 q 390 948 297 908 q 585 987 483 987 q 781 948 688 987 q 941 841 873 908 q 1047 681 1008 774 q 1087 486 1087 588 q 1047 290 1087 383 q 941 130 1008 197 q 781 23 873 63 q 585 -16 688 -16 q 390 23 483 -16 q 230 130 297 63 q 123 290 163 197 m 233 697 q 207 649 233 697 q 180 486 180 601 q 233 274 180 370 q 378 121 285 178 q 585 64 471 64 q 792 121 699 64 q 938 274 886 178 q 990 486 990 370 q 938 697 990 601 q 792 850 886 793 q 585 906 699 906 q 378 850 471 906 q 233 697 285 793 m 352 370 q 342 394 352 370 q 332 482 332 418 q 352 594 332 546 q 407 672 372 643 q 486 714 442 701 q 582 728 530 728 l 789 728 l 789 635 l 692 635 l 653 713 l 582 713 q 479 656 521 713 q 437 482 437 599 q 479 309 437 366 q 582 252 521 252 q 615 252 594 252 q 689 261 636 252 q 781 286 742 270 l 787 271 q 690 244 742 253 q 610 235 639 235 l 582 235 q 486 250 530 235 q 407 293 442 264 q 352 370 372 321 z "},"«":{"ha":640,"x_min":60,"x_max":584,"o":"m 60 456 l 60 500 l 260 730 l 353 730 l 165 478 l 353 229 l 260 229 l 60 456 m 292 456 l 292 500 l 492 730 l 584 730 l 397 478 l 584 229 l 491 229 l 292 456 z "},"­":{"ha":0,"x_min":0,"x_max":0,"o":""},"®":{"ha":1171,"x_min":83,"x_max":1087,"o":"m 123 290 q 103 337 123 290 q 83 486 83 383 q 123 681 83 588 q 230 841 163 774 q 390 948 297 908 q 585 987 483 987 q 781 948 688 987 q 941 841 873 908 q 1047 681 1008 774 q 1087 486 1087 588 q 1047 290 1087 383 q 941 130 1008 197 q 781 23 873 63 q 585 -16 688 -16 q 390 23 483 -16 q 230 130 297 63 q 123 290 163 197 m 233 697 q 207 649 233 697 q 180 486 180 601 q 233 274 180 370 q 378 121 285 178 q 585 64 471 64 q 792 121 699 64 q 938 274 886 178 q 990 486 990 370 q 938 697 990 601 q 792 850 886 793 q 585 906 699 906 q 378 850 471 906 q 233 697 285 793 m 375 241 l 375 689 l 452 730 l 631 730 q 728 715 685 730 q 798 667 770 701 q 826 583 826 633 q 787 486 826 522 q 684 440 748 450 l 844 241 l 719 241 l 562 437 l 473 437 l 473 241 l 375 241 m 473 453 l 590 453 q 635 460 613 453 q 676 480 656 467 q 709 521 696 494 q 721 583 721 548 q 709 645 721 618 q 676 686 696 672 q 635 707 656 700 q 590 713 613 713 l 473 713 l 473 453 z "},"°":{"ha":475,"x_min":60,"x_max":414,"o":"m 112 601 q 86 627 112 601 q 60 726 60 653 q 112 851 60 800 q 237 903 164 903 q 362 851 311 903 q 414 726 414 800 q 362 601 414 653 q 237 549 311 549 q 112 601 164 549 m 172 793 q 159 779 172 793 q 146 726 146 766 q 172 659 146 687 q 237 631 199 631 q 302 659 276 631 q 328 726 328 687 q 302 793 328 766 q 237 821 276 821 q 172 793 199 821 z "},"±":{"ha":990,"x_min":74,"x_max":916,"o":"m 74 1 l 74 98 l 446 98 l 446 438 l 74 438 l 74 535 l 446 535 l 446 907 l 543 907 l 543 535 l 916 535 l 916 438 l 543 438 l 543 98 l 916 98 l 916 1 l 74 1 z "},"´":{"ha":456,"x_min":111,"x_max":345,"o":"m 111 1039 l 222 1208 l 345 1208 l 204 1039 l 111 1039 z "},"¶":{"ha":865,"x_min":72,"x_max":804,"o":"m 72 719 q 93 834 72 784 q 151 913 114 884 q 234 957 188 942 q 334 971 279 971 l 804 971 l 804 939 l 680 939 l 680 -127 l 639 -127 l 639 939 l 448 939 l 448 -127 l 408 -127 l 408 466 l 334 466 q 234 480 279 466 q 151 524 188 495 q 93 603 114 553 q 72 719 72 653 z "},"¸":{"ha":55,"x_min":-102,"x_max":178,"o":"m -102 -284 l 14 -284 q 106 -227 106 -284 q 100 -195 106 -207 q 81 -178 94 -183 q 57 -172 68 -173 q 25 -170 45 -170 l -27 -170 l 0 2 l 54 2 l 46 -132 l 58 -132 q 144 -154 111 -132 q 178 -224 178 -176 q 139 -296 178 -271 q 43 -321 100 -321 l -102 -321 l -102 -284 z "},"»":{"ha":640,"x_min":56,"x_max":580,"o":"m 56 229 l 242 478 l 56 730 l 148 730 l 348 500 l 348 456 l 149 229 l 56 229 m 288 229 l 474 478 l 288 730 l 379 730 l 580 500 l 580 456 l 380 229 l 288 229 z "},"¿":{"ha":873,"x_min":65,"x_max":835,"o":"m 65 142 q 86 246 65 200 q 139 320 106 292 q 211 373 172 349 q 291 416 251 397 q 363 454 331 435 q 417 501 396 474 q 437 563 437 528 l 632 563 q 619 468 632 509 q 576 393 606 427 q 504 332 545 359 q 397 272 463 304 q 323 220 351 248 q 288 164 296 191 q 279 102 279 137 q 337 -24 279 19 q 494 -68 395 -68 q 519 -68 504 -68 q 579 -62 535 -68 q 662 -46 623 -57 q 743 -8 700 -35 q 810 54 785 18 l 835 33 q 769 -32 812 -5 q 680 -72 726 -60 q 591 -92 634 -85 q 522 -100 549 -99 l 494 -100 q 327 -86 403 -100 q 191 -44 251 -73 q 98 32 132 -16 q 65 142 65 79 m 437 661 l 437 888 l 632 888 l 632 661 l 437 661 z "},"À":{"ha":970,"x_min":25,"x_max":945,"o":"m 25 0 l 382 971 l 589 971 l 945 0 l 738 0 l 606 356 l 193 356 l 164 279 l 287 149 l 232 0 l 25 0 m 205 389 l 594 389 l 399 917 l 205 389 m 368 1208 l 490 1208 l 602 1039 l 509 1039 l 368 1208 z "},"Á":{"ha":970,"x_min":25,"x_max":945,"o":"m 25 0 l 382 971 l 589 971 l 945 0 l 738 0 l 606 356 l 193 356 l 164 279 l 287 149 l 232 0 l 25 0 m 205 389 l 594 389 l 399 917 l 205 389 m 368 1039 l 479 1208 l 602 1208 l 461 1039 l 368 1039 z "},"Â":{"ha":970,"x_min":25,"x_max":945,"o":"m 25 0 l 382 971 l 589 971 l 945 0 l 738 0 l 606 356 l 193 356 l 164 279 l 287 149 l 232 0 l 25 0 m 205 389 l 594 389 l 399 917 l 205 389 m 312 1039 l 423 1208 l 547 1208 l 658 1039 l 565 1039 l 485 1135 l 405 1039 l 312 1039 z "},"Ã":{"ha":970,"x_min":25,"x_max":945,"o":"m 25 0 l 382 971 l 589 971 l 945 0 l 738 0 l 606 356 l 193 356 l 164 279 l 287 149 l 232 0 l 25 0 m 205 389 l 594 389 l 399 917 l 205 389 m 340 1044 l 340 1135 q 410 1162 378 1159 q 467 1155 443 1165 q 514 1135 490 1145 q 567 1130 537 1126 q 629 1162 596 1135 l 629 1070 q 559 1042 592 1046 q 503 1048 527 1038 q 456 1066 479 1057 q 403 1072 433 1076 q 340 1044 374 1068 z "},"Ä":{"ha":970,"x_min":25,"x_max":945,"o":"m 25 0 l 382 971 l 589 971 l 945 0 l 738 0 l 606 356 l 193 356 l 164 279 l 287 149 l 232 0 l 25 0 m 205 389 l 594 389 l 399 917 l 205 389 m 243 1039 l 243 1206 l 437 1206 l 437 1039 l 243 1039 m 533 1039 l 533 1206 l 727 1206 l 727 1039 l 533 1039 z "},"Å":{"ha":970,"x_min":25,"x_max":945,"o":"m 25 0 l 382 971 l 589 971 l 945 0 l 738 0 l 606 356 l 193 356 l 164 279 l 287 149 l 232 0 l 25 0 m 205 389 l 594 389 l 399 917 l 205 389 m 395 1048 q 376 1067 395 1048 q 357 1139 357 1086 q 395 1229 357 1192 q 485 1265 432 1265 q 575 1229 538 1265 q 612 1139 612 1192 q 575 1048 612 1086 q 485 1011 538 1011 q 395 1048 432 1011 m 454 1170 q 448 1163 454 1170 q 442 1139 442 1157 q 454 1107 442 1120 q 485 1094 467 1094 q 515 1107 503 1094 q 528 1139 528 1120 q 515 1170 528 1157 q 485 1183 503 1183 q 454 1170 467 1183 z "},"Æ":{"ha":1367,"x_min":25,"x_max":1305,"o":"m 25 0 l 382 971 l 1305 971 l 1305 785 l 1111 785 l 1034 939 l 755 939 l 755 518 l 1143 518 l 1143 486 l 755 486 l 755 33 l 1034 33 l 1111 186 l 1305 186 l 1305 0 l 560 0 l 560 356 l 193 356 l 164 279 l 287 149 l 232 0 l 25 0 m 205 389 l 560 389 l 560 939 l 406 939 l 205 389 z "},"Ç":{"ha":1037,"x_min":69,"x_max":988,"o":"m 69 474 q 96 664 69 578 q 168 807 122 749 q 277 904 214 865 q 413 960 341 943 q 567 978 486 978 l 988 970 l 988 783 l 780 787 l 706 943 l 567 945 q 481 928 523 945 q 403 874 440 911 q 338 784 366 838 q 294 650 310 730 q 277 474 277 570 q 281 401 277 437 q 294 320 284 366 q 320 236 304 275 q 365 159 336 197 q 431 94 393 121 q 523 50 468 66 q 644 33 578 33 q 812 47 741 33 q 976 93 884 62 l 988 59 q 638 -13 821 -4 l 631 -134 l 642 -134 q 727 -156 694 -134 q 761 -226 761 -177 q 722 -297 761 -272 q 628 -321 684 -321 l 484 -321 l 484 -285 l 600 -285 q 690 -227 690 -285 q 684 -197 690 -209 q 666 -180 678 -185 q 641 -173 653 -175 q 610 -172 629 -172 l 558 -172 l 581 -14 l 566 -14 q 413 3 485 -14 q 277 58 340 20 q 168 152 214 96 q 96 290 122 208 q 69 474 69 372 z "},"È":{"ha":915,"x_min":109,"x_max":853,"o":"m 109 0 l 109 890 l 262 971 l 853 971 l 853 785 l 659 785 l 582 939 l 302 939 l 302 518 l 691 518 l 691 486 l 302 486 l 302 33 l 582 33 l 659 186 l 853 186 l 853 0 l 109 0 m 363 1208 l 486 1208 l 597 1039 l 505 1039 l 363 1208 z "},"É":{"ha":915,"x_min":109,"x_max":853,"o":"m 109 0 l 109 890 l 262 971 l 853 971 l 853 785 l 659 785 l 582 939 l 302 939 l 302 518 l 691 518 l 691 486 l 302 486 l 302 33 l 582 33 l 659 186 l 853 186 l 853 0 l 109 0 m 363 1039 l 475 1208 l 597 1208 l 456 1039 l 363 1039 z "},"Ê":{"ha":915,"x_min":109,"x_max":853,"o":"m 109 0 l 109 890 l 262 971 l 853 971 l 853 785 l 659 785 l 582 939 l 302 939 l 302 518 l 691 518 l 691 486 l 302 486 l 302 33 l 582 33 l 659 186 l 853 186 l 853 0 l 109 0 m 308 1039 l 419 1208 l 543 1208 l 654 1039 l 560 1039 l 481 1135 l 401 1039 l 308 1039 z "},"Ë":{"ha":915,"x_min":109,"x_max":853,"o":"m 109 0 l 109 890 l 262 971 l 853 971 l 853 785 l 659 785 l 582 939 l 302 939 l 302 518 l 691 518 l 691 486 l 302 486 l 302 33 l 582 33 l 659 186 l 853 186 l 853 0 l 109 0 m 239 1039 l 239 1206 l 433 1206 l 433 1039 l 239 1039 m 528 1039 l 528 1206 l 723 1206 l 723 1039 l 528 1039 z "},"Ì":{"ha":415,"x_min":90,"x_max":324,"o":"m 90 1208 l 213 1208 l 324 1039 l 231 1039 l 90 1208 m 110 1 l 110 971 l 304 971 l 304 1 l 110 1 z "},"Í":{"ha":415,"x_min":90,"x_max":324,"o":"m 90 1039 l 201 1208 l 324 1208 l 183 1039 l 90 1039 m 110 1 l 110 971 l 304 971 l 304 1 l 110 1 z "},"Î":{"ha":415,"x_min":35,"x_max":380,"o":"m 35 1039 l 146 1208 l 269 1208 l 380 1039 l 288 1039 l 208 1135 l 127 1039 l 35 1039 m 111 1 l 111 971 l 304 971 l 304 1 l 111 1 z "},"Ï":{"ha":415,"x_min":-35,"x_max":450,"o":"m -35 1039 l -35 1206 l 159 1206 l 159 1039 l -35 1039 m 111 1 l 111 971 l 304 971 l 304 1 l 111 1 m 255 1039 l 255 1206 l 450 1206 l 450 1039 l 255 1039 z "},"Ð":{"ha":1147,"x_min":39,"x_max":1078,"o":"m 39 485 l 39 517 l 163 517 l 163 890 l 317 970 l 576 970 q 731 954 659 970 q 869 899 804 937 q 979 806 933 862 q 1052 669 1025 751 q 1078 485 1078 587 q 1052 302 1078 384 q 979 164 1025 220 q 868 71 932 109 q 731 16 804 33 q 576 -1 659 -1 l 163 -1 l 163 485 l 39 485 m 358 32 l 576 32 q 663 47 622 32 q 742 96 704 62 q 807 182 779 131 q 851 311 835 234 q 867 485 867 389 q 851 659 867 581 q 807 787 835 736 q 742 873 779 839 q 663 923 704 908 q 576 938 622 938 l 358 938 l 358 517 l 722 517 l 722 485 l 358 485 l 358 32 z "},"Ñ":{"ha":1127,"x_min":111,"x_max":1016,"o":"m 111 -3 l 111 968 l 351 968 l 975 86 l 975 697 l 822 774 l 822 968 l 1016 968 l 1016 29 l 800 -8 l 151 911 l 151 269 l 305 191 l 305 -3 l 111 -3 m 419 1040 l 419 1132 q 489 1159 456 1156 q 545 1152 522 1162 q 592 1132 569 1141 q 645 1127 616 1122 q 708 1158 675 1131 l 708 1067 q 638 1039 671 1043 q 582 1045 606 1036 q 535 1063 558 1054 q 482 1068 511 1072 q 419 1040 452 1065 z "},"Ò":{"ha":1143,"x_min":69,"x_max":1073,"o":"m 96 296 q 83 339 96 296 q 69 486 69 381 q 96 675 69 590 q 169 817 123 760 q 279 913 215 875 q 416 970 343 952 q 571 987 489 987 q 726 970 653 987 q 863 913 799 952 q 973 817 927 875 q 1046 675 1019 760 q 1073 486 1073 590 q 1046 296 1073 381 q 973 154 1019 212 q 863 58 927 96 q 726 1 799 19 q 571 -16 653 -16 q 416 1 489 -16 q 279 58 343 19 q 169 154 215 96 q 96 296 123 212 m 296 665 q 288 625 296 665 q 280 486 280 585 q 296 306 280 387 q 340 173 313 226 q 406 84 368 120 q 485 32 444 47 q 571 16 526 16 q 679 42 628 16 q 771 122 729 68 q 838 270 813 176 q 863 486 863 363 q 846 665 863 585 q 802 799 830 745 q 736 888 774 852 q 657 940 699 924 q 571 956 616 956 q 485 940 526 956 q 406 888 444 924 q 340 799 368 852 q 296 665 313 745 m 454 1208 l 577 1208 l 688 1039 l 595 1039 l 454 1208 z "},"Ó":{"ha":1143,"x_min":69,"x_max":1073,"o":"m 96 296 q 83 339 96 296 q 69 486 69 381 q 96 675 69 590 q 169 817 123 760 q 279 913 215 875 q 416 970 343 952 q 571 987 489 987 q 726 970 653 987 q 863 913 799 952 q 973 817 927 875 q 1046 675 1019 760 q 1073 486 1073 590 q 1046 296 1073 381 q 973 154 1019 212 q 863 58 927 96 q 726 1 799 19 q 571 -16 653 -16 q 416 1 489 -16 q 279 58 343 19 q 169 154 215 96 q 96 296 123 212 m 296 665 q 288 625 296 665 q 280 486 280 585 q 296 306 280 387 q 340 173 313 226 q 406 84 368 120 q 485 32 444 47 q 571 16 526 16 q 679 42 628 16 q 771 122 729 68 q 838 270 813 176 q 863 486 863 363 q 846 665 863 585 q 802 799 830 745 q 736 888 774 852 q 657 940 699 924 q 571 956 616 956 q 485 940 526 956 q 406 888 444 924 q 340 799 368 852 q 296 665 313 745 m 454 1039 l 566 1208 l 688 1208 l 547 1039 l 454 1039 z "},"Ô":{"ha":1143,"x_min":69,"x_max":1073,"o":"m 96 296 q 83 339 96 296 q 69 486 69 381 q 96 675 69 590 q 169 817 123 760 q 279 913 215 875 q 416 970 343 952 q 571 987 489 987 q 726 970 653 987 q 863 913 799 952 q 973 817 927 875 q 1046 675 1019 760 q 1073 486 1073 590 q 1046 296 1073 381 q 973 154 1019 212 q 863 58 927 96 q 726 1 799 19 q 571 -16 653 -16 q 416 1 489 -16 q 279 58 343 19 q 169 154 215 96 q 96 296 123 212 m 296 665 q 288 625 296 665 q 280 486 280 585 q 296 306 280 387 q 340 173 313 226 q 406 84 368 120 q 485 32 444 47 q 571 16 526 16 q 679 42 628 16 q 771 122 729 68 q 838 270 813 176 q 863 486 863 363 q 846 665 863 585 q 802 799 830 745 q 736 888 774 852 q 657 940 699 924 q 571 956 616 956 q 485 940 526 956 q 406 888 444 924 q 340 799 368 852 q 296 665 313 745 m 399 1039 l 509 1208 l 633 1208 l 744 1039 l 651 1039 l 571 1135 l 492 1039 l 399 1039 z "},"Õ":{"ha":1143,"x_min":69,"x_max":1073,"o":"m 96 296 q 83 339 96 296 q 69 486 69 381 q 96 675 69 590 q 169 817 123 760 q 279 913 215 875 q 416 970 343 952 q 571 987 489 987 q 726 970 653 987 q 863 913 799 952 q 973 817 927 875 q 1046 675 1019 760 q 1073 486 1073 590 q 1046 296 1073 381 q 973 154 1019 212 q 863 58 927 96 q 726 1 799 19 q 571 -16 653 -16 q 416 1 489 -16 q 279 58 343 19 q 169 154 215 96 q 96 296 123 212 m 296 665 q 288 625 296 665 q 280 486 280 585 q 296 306 280 387 q 340 173 313 226 q 406 84 368 120 q 485 32 444 47 q 571 16 526 16 q 679 42 628 16 q 771 122 729 68 q 838 270 813 176 q 863 486 863 363 q 846 665 863 585 q 802 799 830 745 q 736 888 774 852 q 657 940 699 924 q 571 956 616 956 q 485 940 526 956 q 406 888 444 924 q 340 799 368 852 q 296 665 313 745 m 427 1044 l 427 1135 q 488 1161 459 1156 q 536 1160 516 1166 q 577 1145 555 1153 q 617 1131 599 1137 q 661 1132 635 1125 q 715 1162 687 1139 l 715 1070 q 646 1042 678 1046 q 589 1048 613 1038 q 543 1066 566 1057 q 490 1072 519 1076 q 427 1044 460 1068 z "},"Ö":{"ha":1143,"x_min":69,"x_max":1073,"o":"m 96 296 q 83 339 96 296 q 69 486 69 381 q 96 675 69 590 q 169 817 123 760 q 279 913 215 875 q 416 970 343 952 q 571 987 489 987 q 726 970 653 987 q 863 913 799 952 q 973 817 927 875 q 1046 675 1019 760 q 1073 486 1073 590 q 1046 296 1073 381 q 973 154 1019 212 q 863 58 927 96 q 726 1 799 19 q 571 -16 653 -16 q 416 1 489 -16 q 279 58 343 19 q 169 154 215 96 q 96 296 123 212 m 296 665 q 288 625 296 665 q 280 486 280 585 q 296 306 280 387 q 340 173 313 226 q 406 84 368 120 q 485 32 444 47 q 571 16 526 16 q 679 42 628 16 q 771 122 729 68 q 838 270 813 176 q 863 486 863 363 q 846 665 863 585 q 802 799 829 745 q 736 888 774 852 q 657 940 699 924 q 571 956 616 956 q 485 940 526 956 q 406 888 444 924 q 340 799 368 852 q 296 665 313 745 m 329 1039 l 329 1206 l 524 1206 l 524 1039 l 329 1039 m 619 1039 l 619 1206 l 813 1206 l 813 1039 l 619 1039 z "},"×":{"ha":791,"x_min":64,"x_max":728,"o":"m 64 215 l 327 478 l 64 741 l 132 810 l 396 547 l 659 810 l 728 741 l 465 478 l 728 215 l 659 146 l 396 410 l 132 146 l 64 215 z "},"Ø":{"ha":1143,"x_min":69,"x_max":1073,"o":"m 69 485 q 96 674 69 589 q 169 817 123 759 q 279 913 215 874 q 416 969 343 951 q 571 987 489 987 q 863 913 741 987 l 903 969 l 936 946 l 897 890 q 1073 486 1073 759 q 1046 296 1073 381 q 973 154 1019 212 q 863 58 927 96 q 726 1 799 19 q 571 -16 653 -16 q 297 47 413 -16 l 239 -34 l 207 -10 l 262 68 q 69 485 69 198 m 280 485 q 339 176 280 294 l 793 814 q 694 920 752 886 q 571 955 636 955 q 485 939 526 955 q 406 887 444 923 q 340 798 368 851 q 296 664 313 745 q 280 485 280 584 m 361 138 q 456 46 401 76 q 571 16 511 16 q 679 42 628 16 q 771 122 729 68 q 838 269 813 176 q 863 485 863 362 q 813 773 863 658 l 361 138 z "},"Ù":{"ha":1031,"x_min":98,"x_max":932,"o":"m 98 358 l 98 970 l 293 970 l 293 350 q 310 217 293 276 q 363 114 328 158 q 457 47 399 71 q 593 24 515 24 q 702 48 648 24 q 798 114 755 72 q 866 217 840 155 q 892 349 892 279 l 892 700 l 738 777 l 738 970 l 932 970 l 932 358 q 928 294 932 326 q 911 224 924 262 q 879 153 899 186 q 827 87 860 119 q 752 33 794 56 q 650 -3 710 10 q 517 -17 589 -17 q 382 -3 444 -17 q 279 33 321 11 q 204 87 237 56 q 152 153 171 119 q 120 224 132 186 q 103 294 107 262 q 98 358 98 326 m 399 1207 l 521 1207 l 632 1038 l 539 1038 l 399 1207 z "},"Ú":{"ha":1031,"x_min":98,"x_max":932,"o":"m 98 358 l 98 970 l 293 970 l 293 350 q 310 217 293 276 q 363 114 328 158 q 457 47 399 71 q 593 24 515 24 q 702 48 648 24 q 798 114 755 72 q 866 217 840 155 q 892 349 892 279 l 892 700 l 738 777 l 738 970 l 932 970 l 932 358 q 928 294 932 326 q 911 224 924 262 q 879 153 899 186 q 827 87 860 119 q 752 33 794 56 q 650 -3 710 10 q 517 -17 589 -17 q 382 -3 444 -17 q 279 33 321 11 q 204 87 237 56 q 152 153 171 119 q 120 224 132 186 q 103 294 107 262 q 98 358 98 326 m 399 1038 l 510 1207 l 632 1207 l 492 1038 l 399 1038 z "},"Û":{"ha":1031,"x_min":98,"x_max":932,"o":"m 98 358 l 98 970 l 293 970 l 293 350 q 310 217 293 276 q 363 114 328 158 q 457 47 399 71 q 593 24 515 24 q 702 48 648 24 q 798 114 755 72 q 866 217 840 155 q 892 349 892 279 l 892 700 l 738 777 l 738 970 l 932 970 l 932 358 q 928 294 932 326 q 911 224 924 262 q 879 153 899 186 q 827 87 860 119 q 752 33 794 56 q 650 -3 710 10 q 517 -17 589 -17 q 382 -3 444 -17 q 279 33 321 11 q 204 87 237 56 q 152 153 171 119 q 120 224 132 186 q 103 294 107 262 q 98 358 98 326 m 342 1038 l 454 1207 l 577 1207 l 688 1038 l 595 1038 l 515 1134 l 435 1038 l 342 1038 z "},"Ü":{"ha":1031,"x_min":98,"x_max":932,"o":"m 98 358 l 98 970 l 293 970 l 293 350 q 310 217 293 276 q 363 114 328 158 q 457 47 399 71 q 593 24 515 24 q 702 48 648 24 q 798 114 755 72 q 866 217 840 155 q 892 349 892 279 l 892 700 l 738 777 l 738 970 l 932 970 l 932 358 q 928 294 932 326 q 911 224 924 262 q 879 153 899 186 q 827 87 860 119 q 752 33 794 56 q 650 -3 710 10 q 517 -17 589 -17 q 382 -3 444 -17 q 279 33 321 11 q 204 87 237 56 q 152 153 171 119 q 120 224 132 186 q 103 294 107 262 q 98 358 98 326 m 273 1038 l 273 1206 l 467 1206 l 467 1038 l 273 1038 m 564 1038 l 564 1206 l 758 1206 l 758 1038 l 564 1038 z "},"Ý":{"ha":948,"x_min":17,"x_max":932,"o":"m 17 971 l 237 971 l 557 359 l 741 699 l 641 839 l 712 972 l 932 972 l 572 298 l 572 0 l 378 0 l 378 283 l 17 971 m 357 1039 l 469 1208 l 591 1208 l 450 1039 l 357 1039 z "},"Þ":{"ha":1058,"x_min":111,"x_max":1008,"o":"m 111 -1 l 111 970 l 305 970 l 305 777 l 620 777 q 740 766 684 777 q 846 733 796 756 q 931 677 896 711 q 988 595 967 644 q 1008 485 1008 546 q 988 375 1008 425 q 931 293 967 326 q 846 237 896 259 q 740 204 796 214 q 620 194 684 194 l 305 194 l 305 -1 l 111 -1 m 305 226 l 538 226 q 609 234 574 226 q 679 260 644 241 q 740 308 713 279 q 783 382 766 336 q 799 485 799 428 q 782 588 799 542 q 740 662 766 633 q 679 710 713 691 q 609 736 644 729 q 538 744 574 744 l 305 744 l 305 226 z "},"ß":{"ha":1078,"x_min":102,"x_max":1018,"o":"m 102 0 l 102 644 q 139 813 102 741 q 244 922 177 885 q 587 987 361 987 q 752 973 665 987 q 888 946 840 960 l 937 932 l 774 564 q 865 522 825 545 q 941 465 905 498 q 998 382 978 431 q 1018 276 1018 334 q 992 154 1018 207 q 925 69 966 101 q 825 17 884 37 q 709 -10 767 -3 q 585 -17 652 -17 q 404 8 514 -21 l 410 30 q 497 13 453 19 q 563 7 541 7 l 585 6 q 667 20 629 6 q 738 63 705 35 q 788 142 770 92 q 807 256 807 191 q 777 388 807 335 q 691 485 746 441 q 629 526 662 507 q 579 551 596 544 q 559 557 562 557 l 733 939 q 586 954 669 954 q 495 946 536 954 q 417 917 455 939 q 353 862 378 896 q 311 772 327 828 q 296 644 296 717 l 296 0 l 102 0 z "},"à":{"ha":975,"x_min":26,"x_max":946,"o":"m 26 0 l 383 971 l 590 971 l 946 0 l 739 0 l 608 356 l 194 356 l 165 279 l 288 149 l 233 0 l 26 0 m 206 389 l 595 389 l 400 917 l 206 389 m 370 1207 l 492 1207 l 603 1038 l 510 1038 l 370 1207 z "},"á":{"ha":975,"x_min":26,"x_max":946,"o":"m 26 0 l 383 971 l 590 971 l 946 0 l 739 0 l 608 356 l 194 356 l 165 279 l 288 149 l 233 0 l 26 0 m 206 389 l 595 389 l 400 917 l 206 389 m 370 1038 l 481 1207 l 603 1207 l 463 1038 l 370 1038 z "},"â":{"ha":975,"x_min":26,"x_max":946,"o":"m 26 0 l 383 971 l 590 971 l 946 0 l 739 0 l 608 356 l 194 356 l 165 279 l 288 149 l 233 0 l 26 0 m 206 389 l 595 389 l 400 917 l 206 389 m 313 1038 l 425 1207 l 548 1207 l 659 1038 l 566 1038 l 486 1135 l 406 1038 l 313 1038 z "},"ã":{"ha":975,"x_min":26,"x_max":946,"o":"m 26 0 l 383 971 l 590 971 l 946 0 l 739 0 l 608 356 l 194 356 l 165 279 l 288 149 l 233 0 l 26 0 m 206 389 l 595 389 l 400 917 l 206 389 m 342 1043 l 342 1135 q 412 1162 379 1159 q 468 1154 444 1164 q 515 1135 492 1144 q 568 1129 538 1125 q 631 1161 597 1134 l 631 1070 q 561 1042 593 1046 q 505 1047 528 1038 q 457 1066 481 1057 q 405 1071 434 1075 q 342 1043 375 1067 z "},"ä":{"ha":975,"x_min":26,"x_max":946,"o":"m 26 0 l 383 971 l 590 971 l 946 0 l 739 0 l 608 356 l 194 356 l 165 279 l 288 149 l 233 0 l 26 0 m 206 389 l 595 389 l 400 917 l 206 389 m 244 1038 l 244 1206 l 438 1206 l 438 1038 l 244 1038 m 534 1038 l 534 1206 l 728 1206 l 728 1038 l 534 1038 z "},"å":{"ha":975,"x_min":26,"x_max":946,"o":"m 26 0 l 383 971 l 590 971 l 946 0 l 739 0 l 608 356 l 194 356 l 165 279 l 288 149 l 233 0 l 26 0 m 206 389 l 595 389 l 400 917 l 206 389 m 396 1048 q 377 1066 396 1048 q 359 1138 359 1085 q 396 1228 359 1191 q 486 1265 433 1265 q 576 1228 539 1265 q 614 1138 614 1191 q 576 1048 614 1085 q 486 1010 539 1010 q 396 1048 433 1010 m 456 1170 q 450 1163 456 1170 q 444 1138 444 1156 q 456 1106 444 1120 q 486 1093 468 1093 q 517 1106 505 1093 q 529 1138 529 1120 q 517 1170 529 1156 q 486 1183 505 1183 q 456 1170 468 1183 z "},"æ":{"ha":1371,"x_min":26,"x_max":1306,"o":"m 26 0 l 383 971 l 1306 971 l 1306 785 l 1112 785 l 1036 939 l 756 939 l 756 518 l 1145 518 l 1145 486 l 756 486 l 756 33 l 1036 33 l 1112 186 l 1306 186 l 1306 0 l 562 0 l 562 356 l 194 356 l 165 279 l 288 149 l 233 0 l 26 0 m 206 389 l 562 389 l 562 939 l 408 939 l 206 389 z "},"ç":{"ha":1040,"x_min":71,"x_max":990,"o":"m 71 473 q 97 663 71 578 q 169 806 123 748 q 279 903 215 864 q 415 960 342 942 q 568 977 487 977 l 990 969 l 990 782 l 782 787 l 707 943 l 568 945 q 462 918 513 945 q 370 834 412 890 q 304 686 329 779 q 279 473 279 593 q 282 401 279 437 q 296 320 286 365 q 322 236 306 275 q 366 158 338 197 q 432 93 395 120 q 524 49 469 66 q 646 33 579 33 q 814 47 742 33 q 977 92 886 61 l 989 58 q 640 -13 824 -4 l 632 -134 l 643 -134 q 729 -156 695 -134 q 762 -226 762 -177 q 724 -297 762 -272 q 629 -322 685 -322 l 486 -322 l 486 -286 l 601 -286 q 691 -228 691 -286 q 685 -198 691 -210 q 667 -180 680 -186 q 643 -173 655 -175 q 611 -172 630 -172 l 559 -172 l 583 -15 l 568 -15 q 414 2 486 -15 q 278 57 342 19 q 169 151 215 95 q 97 289 123 207 q 71 473 71 372 z "},"è":{"ha":919,"x_min":110,"x_max":854,"o":"m 110 0 l 110 890 l 263 971 l 854 971 l 854 785 l 660 785 l 583 939 l 304 939 l 304 518 l 692 518 l 692 486 l 304 486 l 304 33 l 583 33 l 660 186 l 854 186 l 854 0 l 110 0 m 365 1207 l 488 1207 l 599 1038 l 506 1038 l 365 1207 z "},"é":{"ha":919,"x_min":110,"x_max":854,"o":"m 110 0 l 110 890 l 263 971 l 854 971 l 854 785 l 660 785 l 583 939 l 304 939 l 304 518 l 692 518 l 692 486 l 304 486 l 304 33 l 583 33 l 660 186 l 854 186 l 854 0 l 110 0 m 366 1038 l 476 1207 l 599 1207 l 458 1038 l 366 1038 z "},"ê":{"ha":919,"x_min":110,"x_max":854,"o":"m 110 0 l 110 890 l 263 971 l 854 971 l 854 785 l 660 785 l 583 939 l 304 939 l 304 518 l 692 518 l 692 486 l 304 486 l 304 33 l 583 33 l 660 186 l 854 186 l 854 0 l 110 0 m 309 1038 l 420 1207 l 544 1207 l 655 1038 l 562 1038 l 482 1134 l 402 1038 l 309 1038 z "},"ë":{"ha":919,"x_min":110,"x_max":854,"o":"m 110 0 l 110 890 l 263 971 l 854 971 l 854 785 l 660 785 l 583 939 l 304 939 l 304 518 l 692 518 l 692 486 l 304 486 l 304 33 l 583 33 l 660 186 l 854 186 l 854 0 l 110 0 m 240 1038 l 240 1206 l 434 1206 l 434 1038 l 240 1038 m 530 1038 l 530 1206 l 724 1206 l 724 1038 l 530 1038 z "},"ì":{"ha":418,"x_min":92,"x_max":326,"o":"m 92 1207 l 214 1207 l 326 1038 l 233 1038 l 92 1207 m 111 0 l 111 971 l 306 971 l 306 0 l 111 0 z "},"í":{"ha":418,"x_min":92,"x_max":326,"o":"m 92 1038 l 203 1207 l 326 1207 l 184 1038 l 92 1038 m 111 0 l 111 971 l 306 971 l 306 0 l 111 0 z "},"î":{"ha":418,"x_min":36,"x_max":382,"o":"m 36 1038 l 147 1207 l 271 1207 l 382 1038 l 289 1038 l 209 1134 l 129 1038 l 36 1038 m 112 0 l 112 971 l 306 971 l 306 0 l 112 0 z "},"ï":{"ha":418,"x_min":-33,"x_max":451,"o":"m -33 1038 l -33 1206 l 161 1206 l 161 1038 l -33 1038 m 112 0 l 112 971 l 306 971 l 306 0 l 112 0 m 257 1038 l 257 1206 l 451 1206 l 451 1038 l 257 1038 z "},"ð":{"ha":1149,"x_min":40,"x_max":1080,"o":"m 40 486 l 40 518 l 165 518 l 165 890 l 319 971 l 578 971 q 733 954 660 971 q 870 900 806 937 q 980 807 935 863 q 1053 669 1026 751 q 1080 486 1080 587 q 1053 302 1080 385 q 980 165 1026 220 q 870 72 934 109 q 733 17 806 34 q 578 0 660 0 l 165 0 l 165 486 l 40 486 m 359 33 l 578 33 q 664 47 623 33 q 743 97 705 62 q 808 183 781 132 q 852 312 836 235 q 869 486 869 389 q 852 659 869 582 q 808 788 836 736 q 743 874 781 840 q 664 924 705 909 q 578 939 623 939 l 359 939 l 359 518 l 723 518 l 723 486 l 359 486 l 359 33 z "},"ñ":{"ha":1131,"x_min":113,"x_max":1017,"o":"m 113 -3 l 113 968 l 353 968 l 977 86 l 977 697 l 823 774 l 823 968 l 1017 968 l 1017 29 l 802 -8 l 153 911 l 153 269 l 307 191 l 307 -3 l 113 -3 m 420 1040 l 420 1132 q 490 1159 458 1156 q 547 1152 523 1162 q 594 1132 570 1141 q 647 1127 617 1122 q 709 1158 676 1131 l 709 1067 q 640 1039 672 1043 q 583 1045 607 1036 q 536 1063 559 1054 q 483 1068 513 1072 q 420 1040 454 1065 z "},"ò":{"ha":1145,"x_min":71,"x_max":1074,"o":"m 97 296 q 84 338 97 296 q 71 485 71 380 q 97 674 71 589 q 170 817 124 759 q 280 913 216 874 q 417 969 345 951 q 572 987 490 987 q 727 969 654 987 q 864 913 800 951 q 975 817 928 874 q 1047 674 1021 759 q 1074 485 1074 589 q 1047 296 1074 380 q 975 153 1021 211 q 864 57 928 96 q 727 1 800 18 q 572 -17 654 -17 q 417 1 490 -17 q 280 57 345 18 q 170 153 216 96 q 97 296 124 211 m 298 664 q 290 624 298 664 q 281 485 281 584 q 298 306 281 386 q 342 172 314 225 q 407 83 370 119 q 486 31 445 47 q 572 16 527 16 q 680 42 629 16 q 772 122 730 68 q 839 269 814 176 q 864 485 864 362 q 848 664 864 584 q 804 798 831 745 q 738 887 776 851 q 659 939 700 923 q 572 955 618 955 q 486 939 527 955 q 407 887 445 923 q 342 798 370 851 q 298 664 314 745 m 456 1207 l 578 1207 l 690 1038 l 597 1038 l 456 1207 z "},"ó":{"ha":1145,"x_min":71,"x_max":1074,"o":"m 97 296 q 84 338 97 296 q 71 485 71 380 q 97 674 71 589 q 170 817 124 759 q 280 913 216 874 q 417 969 345 951 q 572 987 490 987 q 727 969 654 987 q 864 913 800 951 q 975 817 928 874 q 1047 674 1021 759 q 1074 485 1074 589 q 1047 296 1074 380 q 975 153 1021 211 q 864 57 928 96 q 727 1 800 18 q 572 -17 654 -17 q 417 1 490 -17 q 280 57 345 18 q 170 153 216 96 q 97 296 124 211 m 298 664 q 290 624 298 664 q 281 485 281 584 q 298 306 281 386 q 342 172 314 225 q 407 83 370 119 q 486 31 445 47 q 572 16 527 16 q 680 42 629 16 q 772 122 730 68 q 839 269 814 176 q 864 485 864 362 q 848 664 864 584 q 804 798 831 745 q 738 887 776 851 q 659 939 700 923 q 572 955 618 955 q 486 939 527 955 q 407 887 445 923 q 342 798 370 851 q 298 664 314 745 m 456 1038 l 567 1207 l 690 1207 l 549 1038 l 456 1038 z "},"ô":{"ha":1145,"x_min":71,"x_max":1074,"o":"m 97 296 q 84 338 97 296 q 71 485 71 380 q 97 674 71 589 q 170 817 124 759 q 280 913 216 874 q 417 969 345 951 q 572 987 490 987 q 727 969 654 987 q 864 913 800 951 q 975 817 928 874 q 1047 674 1021 759 q 1074 485 1074 589 q 1047 296 1074 380 q 975 153 1021 211 q 864 57 928 96 q 727 1 800 18 q 572 -17 654 -17 q 417 1 490 -17 q 280 57 345 18 q 170 153 216 96 q 97 296 124 211 m 298 664 q 290 624 298 664 q 281 485 281 584 q 298 306 281 386 q 342 172 314 225 q 407 83 370 119 q 486 31 445 47 q 572 16 527 16 q 680 42 629 16 q 772 122 730 68 q 839 269 814 176 q 864 485 864 362 q 848 664 864 584 q 804 798 831 745 q 738 887 776 851 q 659 939 700 923 q 572 955 618 955 q 486 939 527 955 q 407 887 445 923 q 342 798 370 851 q 298 664 314 745 m 400 1038 l 511 1207 l 634 1207 l 745 1038 l 652 1038 l 572 1134 l 493 1038 l 400 1038 z "},"õ":{"ha":1145,"x_min":71,"x_max":1074,"o":"m 97 296 q 84 338 97 296 q 71 485 71 380 q 97 674 71 589 q 170 817 124 759 q 280 913 216 874 q 417 969 345 951 q 572 987 490 987 q 727 969 654 987 q 864 913 800 951 q 975 817 928 874 q 1047 674 1021 759 q 1074 485 1074 589 q 1047 296 1074 380 q 975 153 1021 211 q 864 57 928 96 q 727 1 800 18 q 572 -17 654 -17 q 417 1 490 -17 q 280 57 345 18 q 170 153 216 96 q 97 296 124 211 m 298 664 q 290 624 298 664 q 281 485 281 584 q 298 306 281 386 q 342 172 314 225 q 407 83 370 119 q 486 31 445 47 q 572 16 527 16 q 680 42 629 16 q 772 122 730 68 q 839 269 814 176 q 864 485 864 362 q 848 664 864 584 q 804 798 831 745 q 738 887 776 851 q 659 939 700 923 q 572 955 618 955 q 486 939 527 955 q 407 887 445 923 q 342 798 370 851 q 298 664 314 745 m 429 1043 l 429 1134 q 489 1160 460 1155 q 537 1159 517 1166 q 578 1144 557 1152 q 618 1130 600 1136 q 663 1131 637 1124 q 717 1161 688 1138 l 717 1069 q 647 1041 680 1045 q 591 1047 614 1038 q 544 1066 567 1057 q 491 1071 521 1075 q 429 1043 462 1067 z "},"ö":{"ha":1145,"x_min":71,"x_max":1074,"o":"m 97 296 q 84 338 97 296 q 71 485 71 380 q 97 674 71 589 q 170 817 124 759 q 280 913 216 874 q 417 969 345 951 q 572 987 490 987 q 727 969 654 987 q 864 913 800 951 q 975 817 928 874 q 1047 674 1021 759 q 1074 485 1074 589 q 1047 296 1074 380 q 975 153 1021 211 q 864 57 928 96 q 727 1 800 18 q 572 -17 654 -17 q 417 1 490 -17 q 280 57 345 18 q 170 153 216 96 q 97 296 124 211 m 298 664 q 290 624 298 664 q 281 485 281 584 q 298 306 281 386 q 342 172 314 225 q 407 83 370 119 q 486 31 445 47 q 572 16 527 16 q 680 42 629 16 q 772 122 730 68 q 839 269 814 176 q 864 485 864 362 q 847 664 864 584 q 803 798 831 745 q 738 887 776 851 q 659 939 700 924 q 572 955 617 955 q 486 939 527 955 q 407 887 445 923 q 342 798 370 851 q 298 664 314 745 m 330 1038 l 330 1206 l 525 1206 l 525 1038 l 330 1038 m 621 1038 l 621 1206 l 814 1206 l 814 1038 l 621 1038 z "},"÷":{"ha":915,"x_min":36,"x_max":878,"o":"m 36 438 l 36 535 l 878 535 l 878 438 l 36 438 m 360 66 l 360 292 l 554 292 l 554 66 l 360 66 m 360 681 l 360 907 l 554 907 l 554 681 l 360 681 z "},"ø":{"ha":1145,"x_min":71,"x_max":1074,"o":"m 71 485 q 97 674 71 589 q 170 817 124 759 q 280 913 216 874 q 417 969 345 951 q 572 987 490 987 q 864 913 741 987 l 904 969 l 937 946 l 898 890 q 1074 485 1074 759 q 1047 296 1074 380 q 975 154 1021 211 q 865 57 929 96 q 727 1 800 18 q 572 -16 654 -16 q 298 47 414 -16 l 241 -34 l 208 -10 l 264 68 q 71 485 71 198 m 281 485 q 340 176 281 294 l 794 814 q 695 920 753 886 q 572 955 637 955 q 486 939 527 955 q 407 887 445 923 q 342 798 370 851 q 298 664 314 745 q 281 485 281 584 m 363 138 q 457 46 403 76 q 572 16 512 16 q 680 42 629 16 q 772 122 730 68 q 839 269 814 176 q 864 485 864 362 q 814 773 864 658 l 363 138 z "},"ù":{"ha":1034,"x_min":100,"x_max":934,"o":"m 100 358 l 100 970 l 294 970 l 294 350 q 312 217 294 276 q 365 114 329 158 q 459 47 401 71 q 594 24 517 24 q 703 48 650 24 q 799 114 757 72 q 867 217 841 155 q 893 349 893 279 l 893 700 l 739 777 l 739 970 l 934 970 l 934 358 q 929 294 934 326 q 912 224 925 262 q 881 153 900 186 q 828 87 861 119 q 753 33 795 56 q 651 -3 711 10 q 518 -17 591 -17 q 384 -3 445 -17 q 280 33 323 11 q 205 87 238 56 q 153 153 172 119 q 121 224 134 186 q 104 294 109 262 q 100 358 100 326 m 400 1207 l 522 1207 l 633 1038 l 541 1038 l 400 1207 z "},"ú":{"ha":1034,"x_min":100,"x_max":934,"o":"m 100 358 l 100 970 l 294 970 l 294 350 q 312 217 294 276 q 365 114 329 158 q 459 47 401 71 q 594 24 517 24 q 703 48 650 24 q 799 114 757 72 q 867 217 841 155 q 893 349 893 279 l 893 700 l 739 777 l 739 970 l 934 970 l 934 358 q 929 294 934 326 q 912 224 925 262 q 881 153 900 186 q 828 87 861 119 q 753 33 795 56 q 651 -3 711 10 q 518 -17 591 -17 q 384 -3 445 -17 q 280 33 323 11 q 205 87 238 56 q 153 153 172 119 q 121 224 134 186 q 104 294 109 262 q 100 358 100 326 m 400 1038 l 511 1207 l 633 1207 l 493 1038 l 400 1038 z "},"û":{"ha":1034,"x_min":100,"x_max":934,"o":"m 100 358 l 100 970 l 294 970 l 294 350 q 312 217 294 276 q 365 114 329 158 q 459 47 401 71 q 594 24 517 24 q 703 48 650 24 q 799 114 757 72 q 867 217 841 155 q 893 349 893 279 l 893 700 l 739 777 l 739 970 l 934 970 l 934 358 q 929 294 934 326 q 912 224 925 262 q 881 153 900 186 q 828 87 861 119 q 753 33 795 56 q 651 -3 711 10 q 518 -17 591 -17 q 384 -3 445 -17 q 280 33 323 11 q 205 87 238 56 q 153 153 172 119 q 121 224 134 186 q 104 294 109 262 q 100 358 100 326 m 344 1038 l 455 1207 l 578 1207 l 690 1038 l 597 1038 l 517 1134 l 437 1038 l 344 1038 z "},"ü":{"ha":1034,"x_min":100,"x_max":934,"o":"m 100 358 l 100 970 l 294 970 l 294 350 q 312 217 294 276 q 365 114 329 158 q 459 47 401 71 q 594 24 517 24 q 703 48 650 24 q 799 114 757 72 q 867 217 841 155 q 893 349 893 279 l 893 700 l 739 777 l 739 970 l 934 970 l 934 358 q 929 294 934 326 q 912 224 925 262 q 881 153 900 186 q 828 87 861 119 q 753 33 795 56 q 651 -3 711 10 q 518 -17 591 -17 q 384 -3 445 -17 q 280 33 323 11 q 205 87 238 56 q 153 153 172 119 q 121 224 134 186 q 104 294 109 262 q 100 358 100 326 m 275 1038 l 275 1206 l 469 1206 l 469 1038 l 275 1038 m 565 1038 l 565 1206 l 759 1206 l 759 1038 l 565 1038 z "},"ý":{"ha":949,"x_min":18,"x_max":933,"o":"m 18 971 l 238 971 l 559 359 l 742 699 l 642 839 l 713 972 l 933 972 l 573 298 l 573 0 l 379 0 l 379 283 l 18 971 m 359 1039 l 470 1208 l 593 1208 l 452 1039 l 359 1039 z "},"þ":{"ha":1059,"x_min":111,"x_max":1008,"o":"m 111 0 l 111 971 l 305 971 l 305 777 l 620 777 q 740 767 684 777 q 846 734 796 757 q 931 678 896 711 q 988 596 967 645 q 1008 486 1008 547 q 977 353 1008 410 q 891 262 946 296 q 768 211 837 228 q 620 194 700 194 l 305 194 l 305 0 l 111 0 m 305 227 l 538 227 q 609 234 574 227 q 679 261 644 242 q 740 309 713 280 q 783 383 766 337 q 799 486 799 429 q 782 588 799 543 q 740 663 766 634 q 679 711 713 692 q 609 737 644 730 q 538 745 574 745 l 305 745 l 305 227 z "},"ÿ":{"ha":949,"x_min":18,"x_max":933,"o":"m 18 971 l 238 971 l 559 359 l 742 699 l 642 839 l 713 972 l 933 972 l 573 298 l 573 0 l 379 0 l 379 283 l 18 971 m 233 1039 l 233 1207 l 428 1207 l 428 1039 l 233 1039 m 524 1039 l 524 1207 l 718 1207 l 718 1039 l 524 1039 z "},"Œ":{"ha":1670,"x_min":69,"x_max":1607,"o":"m 96 296 q 83 338 96 296 q 69 485 69 380 q 96 674 69 589 q 169 817 123 759 q 279 913 215 874 q 416 969 343 951 q 571 987 489 987 q 883 901 756 987 l 1016 970 l 1607 970 l 1607 785 l 1413 785 l 1336 938 l 1057 938 l 1057 633 q 1072 517 1068 583 l 1445 517 l 1445 485 l 1073 485 q 1057 336 1073 408 l 1057 32 l 1336 32 l 1413 185 l 1607 185 l 1607 -1 l 863 -1 l 863 57 q 571 -17 740 -17 q 416 1 489 -17 q 279 57 343 18 q 169 153 215 96 q 96 296 123 211 m 296 664 q 288 624 296 664 q 280 485 280 584 q 296 306 280 386 q 340 172 313 225 q 406 83 368 119 q 485 31 444 47 q 571 16 526 16 q 679 42 628 16 q 771 122 729 68 q 838 269 813 176 q 863 485 863 362 q 838 701 863 608 q 771 848 813 795 q 679 928 729 902 q 571 954 628 954 q 485 939 526 954 q 406 887 444 923 q 340 798 368 851 q 296 664 313 745 z "},"œ":{"ha":1673,"x_min":71,"x_max":1609,"o":"m 97 296 q 84 338 97 296 q 71 485 71 380 q 97 674 71 589 q 170 817 124 759 q 280 913 216 874 q 417 969 345 951 q 572 987 490 987 q 884 901 758 987 l 1017 970 l 1609 970 l 1609 785 l 1415 785 l 1337 938 l 1058 938 l 1058 633 q 1073 517 1069 583 l 1447 517 l 1447 485 l 1074 485 q 1058 336 1074 408 l 1058 32 l 1337 32 l 1415 185 l 1609 185 l 1609 -1 l 864 -1 l 864 57 q 572 -17 741 -17 q 417 1 490 -17 q 280 57 345 18 q 170 153 216 96 q 97 296 124 211 m 298 664 q 290 624 298 664 q 281 485 281 584 q 298 306 281 386 q 342 172 314 225 q 407 83 370 119 q 486 31 445 47 q 572 16 527 16 q 680 42 629 16 q 772 122 730 68 q 839 269 814 176 q 864 485 864 362 q 839 701 864 608 q 772 848 814 795 q 680 928 730 902 q 572 954 629 954 q 486 939 527 954 q 407 887 445 923 q 342 798 370 851 q 298 664 314 745 z "},"Ÿ":{"ha":948,"x_min":17,"x_max":932,"o":"m 17 971 l 237 971 l 557 359 l 741 699 l 641 839 l 712 972 l 932 972 l 572 298 l 572 0 l 378 0 l 378 283 l 17 971 m 232 1039 l 232 1207 l 427 1207 l 427 1039 l 232 1039 m 522 1039 l 522 1207 l 716 1207 l 716 1039 l 522 1039 z "},"ˆ":{"ha":568,"x_min":111,"x_max":456,"o":"m 111 1039 l 222 1208 l 345 1208 l 456 1039 l 363 1039 l 284 1135 l 204 1039 l 111 1039 z "},"˜":{"ha":511,"x_min":111,"x_max":399,"o":"m 111 1041 l 111 1133 q 181 1160 149 1157 q 237 1152 214 1162 q 284 1133 261 1142 q 337 1127 307 1123 q 399 1159 366 1132 l 399 1068 q 330 1040 362 1044 q 273 1045 297 1036 q 227 1064 250 1055 q 174 1069 203 1073 q 111 1041 144 1065 z "}," ":{"ha":633,"x_min":0,"x_max":0,"o":""}," ":{"ha":1265,"x_min":0,"x_max":0,"o":""}," ":{"ha":633,"x_min":0,"x_max":0,"o":""}," ":{"ha":1265,"x_min":0,"x_max":0,"o":""}," ":{"ha":422,"x_min":0,"x_max":0,"o":""}," ":{"ha":316,"x_min":0,"x_max":0,"o":""}," ":{"ha":211,"x_min":0,"x_max":0,"o":""}," ":{"ha":211,"x_min":0,"x_max":0,"o":""}," ":{"ha":158,"x_min":0,"x_max":0,"o":""}," ":{"ha":253,"x_min":0,"x_max":0,"o":""}," ":{"ha":70,"x_min":0,"x_max":0,"o":""},"‐":{"ha":912,"x_min":35,"x_max":876,"o":"m 35 430 l 35 527 l 876 527 l 876 430 l 35 430 z "},"‑":{"ha":912,"x_min":35,"x_max":876,"o":"m 35 430 l 35 527 l 876 527 l 876 430 l 35 430 z "},"‒":{"ha":912,"x_min":35,"x_max":876,"o":"m 35 430 l 35 527 l 876 527 l 876 430 l 35 430 z "},"–":{"ha":882,"x_min":20,"x_max":861,"o":"m 20 459 l 20 491 l 861 491 l 861 459 l 20 459 z "},"—":{"ha":1175,"x_min":20,"x_max":1156,"o":"m 20 459 l 20 491 l 1156 491 l 1156 459 l 20 459 z "},"‘":{"ha":326,"x_min":68,"x_max":262,"o":"m 68 581 l 68 791 q 111 921 68 866 q 225 1001 155 976 l 233 971 q 106 824 127 935 l 262 791 l 262 581 l 68 581 z "},"’":{"ha":329,"x_min":66,"x_max":261,"o":"m 66 765 l 66 975 l 261 975 l 261 765 q 218 635 261 690 q 104 555 174 581 l 96 585 q 224 732 202 621 l 66 765 z "},"‚":{"ha":300,"x_min":53,"x_max":247,"o":"m 53 -1 l 53 226 l 247 226 l 247 10 l 102 -194 l 69 -170 l 190 -1 l 53 -1 z "},"“":{"ha":615,"x_min":68,"x_max":551,"o":"m 68 581 l 68 791 q 111 921 68 866 q 225 1001 155 976 l 233 971 q 106 824 127 935 l 262 791 l 262 581 l 68 581 m 357 581 l 357 791 q 400 921 357 866 q 513 1001 443 977 l 522 971 q 394 824 416 935 l 551 791 l 551 581 l 357 581 z "},"”":{"ha":618,"x_min":66,"x_max":549,"o":"m 66 765 l 66 975 l 261 975 l 261 765 q 218 635 261 690 q 104 555 174 581 l 96 585 q 224 732 202 621 l 66 765 m 355 765 l 355 975 l 549 975 l 549 765 q 506 635 549 690 q 393 555 463 580 l 385 585 q 512 732 490 621 l 355 765 z "},"„":{"ha":590,"x_min":53,"x_max":537,"o":"m 53 -1 l 53 226 l 247 226 l 247 10 l 102 -194 l 69 -170 l 190 -1 l 53 -1 m 342 -1 l 342 226 l 537 226 l 537 10 l 391 -194 l 359 -170 l 480 -1 l 342 -1 z "},"•":{"ha":475,"x_min":60,"x_max":414,"o":"m 112 347 q 86 373 112 347 q 60 472 60 399 q 112 597 60 545 q 237 650 164 650 q 362 597 311 650 q 414 472 414 545 q 362 347 414 399 q 237 295 311 295 q 112 347 164 295 z "},"…":{"ha":1017,"x_min":53,"x_max":963,"o":"m 53 1 l 53 227 l 247 227 l 247 1 l 53 1 m 411 1 l 411 227 l 605 227 l 605 1 l 411 1 m 769 1 l 769 227 l 963 227 l 963 1 l 769 1 z "}," ":{"ha":253,"x_min":0,"x_max":0,"o":""},"‹":{"ha":408,"x_min":60,"x_max":353,"o":"m 60 456 l 60 500 l 260 730 l 353 730 l 165 478 l 353 229 l 260 229 l 60 456 z "},"›":{"ha":408,"x_min":56,"x_max":348,"o":"m 56 229 l 242 478 l 56 730 l 148 730 l 348 500 l 348 456 l 149 229 l 56 229 z "}," ":{"ha":316,"x_min":0,"x_max":0,"o":""},"€":{"ha":1145,"x_min":68,"x_max":1063,"o":"m 68 376 l 68 409 l 146 409 q 145 479 145 425 q 147 550 145 533 l 68 550 l 68 583 l 152 583 q 197 728 164 663 q 276 838 229 793 q 382 913 322 883 q 508 957 441 943 q 648 970 574 970 l 1063 962 l 1063 777 l 854 781 l 780 937 l 648 939 q 571 926 608 939 q 499 887 534 914 q 436 819 464 859 q 389 718 409 779 q 361 583 369 657 l 875 583 l 875 550 l 357 550 q 356 479 356 531 q 357 409 356 427 l 875 409 l 875 376 l 360 376 q 397 211 370 282 q 465 97 425 139 q 551 35 505 56 q 648 15 597 15 l 780 18 l 854 173 l 1063 178 l 1063 -9 l 648 -17 q 507 -3 574 -17 q 380 41 440 11 q 274 117 320 72 q 196 229 228 163 q 151 376 163 295 l 68 376 z "},"™":{"ha":1519,"x_min":49,"x_max":1431,"o":"m 49 856 l 49 971 l 703 971 l 703 856 l 583 856 l 535 951 l 435 951 l 435 372 l 315 372 l 315 951 l 216 951 l 168 856 l 49 856 m 798 372 l 798 971 l 930 971 l 1142 532 l 1310 971 l 1431 970 l 1431 372 l 1312 372 l 1312 905 l 1107 367 l 1080 367 l 823 918 l 823 539 l 917 492 l 917 372 l 798 372 z "},"◼":{"ha":972,"x_min":0,"x_max":972,"o":"m 0 0 l 0 972 l 972 972 l 972 0 l 0 0 z "}}}
